{
.appVersion = "3058";
.formatVersion = 3;
date = "2021-05-09 15:08:31 +0000";
familyName = EorzeaCursive;
fontMaster = (
{
id = m01;
metricValues = (
{
over = 16;
pos = 800;
},
{
over = 16;
pos = 700;
},
{
over = 16;
pos = 500;
},
{
over = -16;
},
{
over = -16;
pos = -200;
}
);
name = Regular;
}
);
glyphs = (
{
glyphname = A;
lastChange = "2021-04-23 02:15:58 +0000";
layers = (
{
layerId = m01;
shapes = (
{
attr = {
fillColor = (0,255);
};
closed = 1;
nodes = (
(141,162,o),
(141,143,o),
(146,125,c),
(143,117,o),
(100,45,o),
(100,23,c),
(100,1,o),
(114,0,o),
(125,0,c),
(156,0,o),
(161,72,o),
(169,92,c),
(178,78,o),
(252,11,o),
(393,11,c),
(419,6,o),
(445,0,o),
(471,0,c),
(679,0,o),
(900,200,o),
(900,200,c),
(900,200,o),
(649,69,o),
(594,49,c),
(554,35,o),
(512,21,o),
(469,22,c),
(541,40,o),
(964,289,o),
(752,427,c),
(486,601,o),
(288,348,o),
(205,239,c),
(204,311,o),
(247,467,o),
(338,576,c),
(506,776,o),
(698,700,o),
(698,700,c),
(698,700,o),
(648,800,o),
(558,800,c),
(193,800,o),
(168,277,o),
(157,176,c)
);
},
{
attr = {
fillColor = (0,255);
};
closed = 1;
nodes = (
(148,81,o),
(133,16,o),
(120,17,c),
(108,17,o),
(149,87,o),
(151,93,c)
);
},
{
attr = {
fillColor = (0,255);
};
closed = 1;
nodes = (
(378,23,o),
(311,65,o),
(262,136,c),
(252,151,o),
(221,189,o),
(203,192,c),
(239,253,o),
(481,451,o),
(675,344,c),
(870,239,o),
(455,33,o),
(416,28,c)
);
},
{
attr = {
fillColor = (0,255);
};
closed = 1;
nodes = (
(191,173,o),
(200,166,o),
(206,161,c),
(242,133,o),
(301,52,o),
(316,41,c),
(251,48,o),
(187,98,o),
(175,111,c),
(177,122,o),
(191,173,o),
(191,173,c)
);
},
{
attr = {
fillColor = (0,255);
};
closed = 1;
nodes = (
(153,150,o),
(149,138,o),
(151,137,c),
(153,137,o),
(154,150,o),
(155,154,c)
);
}
);
width = 900;
}
);
unicode = 65;
},
{
glyphname = B;
lastChange = "2021-04-23 02:16:06 +0000";
layers = (
{
layerId = m01;
shapes = (
{
attr = {
fillColor = (0,255);
};
closed = 1;
nodes = (
(458,605,o),
(357,249,o),
(537,246,c),
(729,243,o),
(1001,800,o),
(696,800,c),
(524,800,o),
(101,545,o),
(100,200,c),
(100,118,o),
(164,0,o),
(246,0,c),
(556,0,o),
(900,200,o),
(900,200,c),
(900,200,o),
(449,48,o),
(300,49,c),
(55,51,o),
(457,759,o),
(699,762,c),
(866,765,o),
(605,298,o),
(544,299,c),
(430,301,o),
(458,605,o),
(458,605,c)
);
}
);
width = 900;
}
);
unicode = 66;
},
{
glyphname = C;
lastChange = "2021-04-23 02:16:13 +0000";
layers = (
{
layerId = m01;
shapes = (
{
attr = {
fillColor = (0,255);
};
closed = 1;
nodes = (
(566,92,o),
(590,0,o),
(692,-1,c),
(735,-1,o),
(800,200,o),
(800,200,c),
(800,200,o),
(728,25,o),
(688,26,c),
(603,27,o),
(588,130,o),
(586,217,c),
(628,307,o),
(638,392,o),
(628,393,c),
(575,396,o),
(573,280,o),
(570,259,c),
(517,177,o),
(425,90,o),
(304,136,c),
(112,207,o),
(224,708,o),
(459,761,c),
(550,781,o),
(600,595,o),
(600,595,c),
(600,595,o),
(618,800,o),
(458,800,c),
(298,800,o),
(99,573,o),
(100,295,c),
(101,174,o),
(207,1,o),
(300,0,c),
(428,0,o),
(513,84,o),
(564,176,c)
);
},
{
attr = {
fillColor = (0,255);
};
closed = 1;
nodes = (
(614,338,o),
(626,380,o),
(619,379,c),
(595,375,o),
(588,297,o),
(587,288,c)
);
}
);
width = 800;
}
);
unicode = 67;
},
{
glyphname = D;
lastChange = "2021-04-24 03:49:43 +0000";
layers = (
{
layerId = m01;
shapes = (
{
attr = {
fillColor = (0,255);
};
closed = 1;
nodes = (
(373,103,o),
(405,-1,o),
(498,0,c),
(580,1,o),
(800,200,o),
(800,200,c),
(800,200,o),
(614,79,o),
(540,80,c),
(439,81,o),
(440,231,o),
(463,374,c),
(526,532,o),
(564,678,o),
(541,678,c),
(480,677,o),
(426,465,o),
(398,315,c),
(332,165,o),
(277,87,o),
(239,51,c),
(202,16,o),
(200,140,o),
(201,197,c),
(206,391,o),
(444,748,o),
(599,748,c),
(687,748,o),
(754,600,o),
(754,600,c),
(754,600,o),
(711,800,o),
(600,800,c),
(305,800,o),
(100,338,o),
(100,200,c),
(100,125,o),
(135,0,o),
(200,0,c),
(265,1,o),
(324,101,o),
(389,235,c)
);
},
{
attr = {
fillColor = (0,255);
};
closed = 1;
nodes = (
(524,590,o),
(547,665,o),
(537,662,c),
(530,659,o),
(505,569,o),
(486,491,c)
);
}
);
width = 800;
}
);
unicode = 68;
},
{
glyphname = E;
lastChange = "2021-04-24 14:43:39 +0000";
layers = (
{
layerId = m01;
shapes = (
{
attr = {
fillColor = (0,255);
};
closed = 1;
nodes = (
(801,498,o),
(759,732,o),
(497,740,c),
(393,744,o),
(201,700,o),
(201,700,c),
(201,700,o),
(307,798,o),
(506,800,c),
(807,804,o),
(892,483,o),
(797,245,c),
(830,218,o),
(864,198,o),
(900,190,c),
(953,178,o),
(969,182,o),
(1000,199,c),
(966,176,o),
(950,168,o),
(903,168,c),
(864,169,o),
(821,181,o),
(777,200,c),
(715,83,o),
(616,0,o),
(448,0,c),
(336,0,o),
(100,15,o),
(100,249,c),
(100,429,o),
(251,512,o),
(402,503,c),
(536,494,o),
(636,397,o),
(727,308,c)
);
},
{
attr = {
fillColor = (0,255);
};
closed = 1;
nodes = (
(577,307,o),
(466,408,o),
(392,416,c),
(224,433,o),
(125,340,o),
(150,251,c),
(179,142,o),
(362,76,o),
(453,70,c),
(588,62,o),
(639,146,o),
(694,241,c)
);
}
);
width = 1000;
}
);
unicode = 69;
},
{
glyphname = F;
lastChange = "2021-04-24 04:02:58 +0000";
layers = (
{
layerId = m01;
shapes = (
{
attr = {
fillColor = (0,255);
};
closed = 1;
nodes = (
(201,667,o),
(282,800,o),
(485,800,c),
(638,802,o),
(571,721,o),
(445,674,c),
(397,656,o),
(340,641,o),
(286,630,c),
(247,565,o),
(232,474,o),
(233,408,c),
(234,320,o),
(235,224,o),
(229,147,c),
(335,169,o),
(600,200,o),
(600,200,c),
(600,200,o),
(321,142,o),
(228,116,c),
(220,44,o),
(200,0,o),
(164,0,c),
(110,-1,o),
(100,42,o),
(100,51,c),
(99,63,o),
(94,108,o),
(171,135,c),
(167,216,o),
(136,331,o),
(132,424,c),
(128,501,o),
(155,563,o),
(176,610,c),
(133,604,o),
(105,600,o),
(105,600,c),
(105,600,o),
(135,607,o),
(178,616,c)
);
},
{
attr = {
fillColor = (0,255);
};
closed = 1;
nodes = (
(153,95,o),
(140,77,o),
(137,61,c),
(136,52,o),
(144,32,o),
(155,39,c),
(165,45,o),
(171,73,o),
(172,102,c)
);
},
{
attr = {
fillColor = (0,255);
};
closed = 1;
nodes = (
(422,677,o),
(555,725,o),
(481,765,c),
(439,788,o),
(313,673,o),
(295,644,c)
);
}
);
width = 600;
}
);
unicode = 70;
},
{
glyphname = G;
lastChange = "2021-04-24 14:53:09 +0000";
layers = (
{
layerId = m01;
shapes = (
{
attr = {
fillColor = (0,255);
};
closed = 1;
nodes = (
(613,302,o),
(637,253,o),
(691,226,c),
(734,205,o),
(800,200,o),
(800,200,c),
(800,200,o),
(758,212,o),
(718,244,c),
(671,282,o),
(647,347,o),
(582,388,c),
(605,503,o),
(608,600,o),
(601,600,c),
(594,600,o),
(580,510,o),
(550,405,c),
(268,546,o),
(246,246,o),
(251,104,c),
(196,140,o),
(169,230,o),
(173,303,c),
(184,518,o),
(343,717,o),
(439,740,c),
(545,766,o),
(603,700,o),
(603,700,c),
(603,700,o),
(573,800,o),
(502,800,c),
(352,799,o),
(100,657,o),
(100,308,c),
(99,134,o),
(201,0,o),
(298,0,c),
(446,0,o),
(527,165,o),
(568,325,c)
);
},
{
attr = {
fillColor = (0,255);
};
closed = 1;
nodes = (
(487,214,o),
(417,88,o),
(306,87,c),
(305,87,o),
(304,87,o),
(303,87,c),
(296,139,o),
(268,443,o),
(530,341,c)
);
}
);
width = 800;
}
);
unicode = 71;
},
{
glyphname = H;
lastChange = "2021-04-24 14:55:56 +0000";
layers = (
{
layerId = m01;
shapes = (
{
attr = {
fillColor = (0,255);
};
closed = 1;
nodes = (
(577,796,o),
(566,791,o),
(549,770,c),
(473,669,o),
(285,419,o),
(318,421,c),
(321,422,o),
(324,427,o),
(328,431,c),
(312,407,o),
(291,375,o),
(273,358,c),
(273,358,o),
(383,800,o),
(206,800,c),
(156,799,o),
(100,693,o),
(100,693,c),
(100,693,o),
(175,792,o),
(200,761,c),
(243,704,o),
(243,479,o),
(222,279,c),
(193,213,o),
(140,1,o),
(181,0,c),
(207,0,o),
(243,156,o),
(277,316,c),
(309,357,o),
(338,397,o),
(370,438,c),
(386,459,o),
(405,483,o),
(425,508,c),
(463,536,o),
(506,561,o),
(545,561,c),
(665,561,o),
(510,171,o),
(461,52,c),
(428,22,o),
(407,-1,o),
(426,0,c),
(450,1,o),
(478,43,o),
(495,67,c),
(526,92,o),
(560,117,o),
(579,130,c),
(617,157,o),
(700,200,o),
(700,200,c),
(700,200,o),
(598,161,o),
(560,134,c),
(550,126,o),
(534,115,o),
(518,102,c),
(628,266,o),
(811,591,o),
(562,596,c),
(530,596,o),
(502,588,o),
(477,576,c),
(560,685,o),
(636,795,o),
(600,796,c)
);
},
{
attr = {
fillColor = (0,255);
};
closed = 1;
nodes = (
(449,24,o),
(438,5,o),
(431,5,c),
(422,4,o),
(433,15,o),
(452,32,c)
);
},
{
attr = {
fillColor = (0,255);
};
closed = 1;
nodes = (
(218,169,o),
(189,36,o),
(179,24,c),
(173,15,o),
(175,43,o),
(177,62,c),
(177,62,o),
(208,183,o),
(227,228,c)
);
},
{
attr = {
fillColor = (0,255);
};
closed = 1;
nodes = (
(347,461,o),
(345,460,o),
(343,459,c),
(318,446,o),
(583,780,o),
(582,770,c),
(580,753,o),
(429,579,o),
(348,463,c)
);
}
);
width = 700;
}
);
unicode = 72;
},
{
glyphname = I;
lastChange = "2021-04-24 14:57:52 +0000";
layers = (
{
layerId = m01;
shapes = (
{
attr = {
fillColor = (0,255);
};
closed = 1;
nodes = (
(102,156,o),
(100,95,o),
(100,57,c),
(100,35,o),
(106,1,o),
(137,1,c),
(184,0,o),
(188,101,o),
(198,229,c),
(205,236,o),
(213,242,o),
(222,245,c),
(273,263,o),
(400,200,o),
(400,200,c),
(400,200,o),
(260,293,o),
(209,274,c),
(207,273,o),
(204,271,o),
(201,270,c),
(205,317,o),
(211,366,o),
(221,414,c),
(259,614,o),
(308,801,o),
(290,800,c),
(263,799,o),
(162,671,o),
(100,600,c),
(100,600,o),
(275,777,o),
(260,750,c),
(235,704,o),
(185,570,o),
(165,425,c),
(155,357,o),
(151,286,o),
(148,223,c)
);
},
{
attr = {
fillColor = (0,255);
};
closed = 1;
nodes = (
(143,82,o),
(141,57,o),
(132,35,c),
(124,17,o),
(134,101,o),
(145,133,c)
);
}
);
width = 400;
}
);
unicode = 73;
},
{
glyphname = J;
lastChange = "2021-04-24 14:59:10 +0000";
layers = (
{
layerId = m01;
shapes = (
{
attr = {
fillColor = (0,255);
};
closed = 1;
nodes = (
(176,656,o),
(165,800,o),
(240,800,c),
(267,801,o),
(237,690,o),
(214,556,c),
(225,520,o),
(244,489,o),
(275,471,c),
(355,424,o),
(701,501,o),
(701,501,c),
(701,501,o),
(380,354,o),
(243,427,c),
(226,436,o),
(212,451,o),
(202,469,c),
(190,352,o),
(193,230,o),
(252,155,c),
(336,47,o),
(800,200,o),
(800,200,c),
(800,200,o),
(601,-1,o),
(303,0,c),
(210,1,o),
(100,102,o),
(100,194,c),
(100,312,o),
(142,463,o),
(178,585,c)
);
},
{
attr = {
fillColor = (0,255);
};
closed = 1;
nodes = (
(216,714,o),
(223,744,o),
(226,769,c),
(227,777,o),
(217,764,o),
(209,735,c),
(202,710,o),
(202,680,o),
(201,665,c)
);
}
);
width = 800;
}
);
unicode = 74;
},
{
glyphname = K;
lastChange = "2021-04-24 15:08:40 +0000";
layers = (
{
layerId = m01;
shapes = (
{
attr = {
fillColor = (0,255);
};
closed = 1;
nodes = (
(250,281,o),
(265,332,o),
(284,362,c),
(331,433,o),
(441,450,o),
(503,498,c),
(568,548,o),
(588,741,o),
(526,741,c),
(483,741,o),
(379,647,o),
(271,541,c),
(164,436,o),
(100,322,o),
(100,342,c),
(100,369,o),
(146,470,o),
(193,572,c),
(235,663,o),
(254,766,o),
(254,766,c),
(132,641,l),
(132,641,o),
(252,800,o),
(275,800,c),
(293,801,o),
(258,681,o),
(238,625,c),
(214,557,o),
(132,393,o),
(132,393,c),
(132,393,o),
(333,759,o),
(563,781,c),
(727,797,o),
(650,540,o),
(525,457,c),
(464,416,o),
(394,412,o),
(333,313,c),
(325,300,o),
(319,284,o),
(313,265,c),
(359,276,o),
(420,271,o),
(502,239,c),
(530,227,o),
(579,209,o),
(602,206,c),
(672,197,o),
(700,200,o),
(700,200,c),
(700,200,o),
(650,185,o),
(556,204,c),
(499,215,o),
(480,245,o),
(407,256,c),
(367,262,o),
(335,259,o),
(310,252,c),
(283,152,o),
(273,-1,o),
(198,0,c),
(149,1,o),
(188,182,o),
(238,227,c)
);
},
{
attr = {
fillColor = (0,255);
};
closed = 1;
nodes = (
(203,151,o),
(186,3,o),
(200,23,c),
(215,43,o),
(216,120,o),
(231,195,c)
);
}
);
width = 700;
}
);
unicode = 75;
},
{
glyphname = L;
lastChange = "2021-04-28 03:53:18 +0000";
layers = (
{
layerId = m01;
shapes = (
{
attr = {
fillColor = (0,255);
};
closed = 1;
nodes = (
(482,801,o),
(366,272,o),
(360,160,c),
(316,100,o),
(270,56,o),
(226,43,c),
(154,23,o),
(100,200,o),
(100,200,c),
(100,200,o),
(127,0,o),
(201,0,c),
(249,0,o),
(305,38,o),
(360,96,c),
(364,40,o),
(382,0,o),
(424,0,c),
(581,0,o),
(700,200,o),
(700,200,c),
(700,200,o),
(505,38,o),
(433,34,c),
(397,31,o),
(383,68,o),
(382,120,c),
(575,343,o),
(754,800,o),
(602,800,c)
);
},
{
attr = {
fillColor = (0,255);
};
closed = 1;
nodes = (
(397,288,o),
(502,769,o),
(591,771,c),
(636,772,o),
(526,412,o),
(386,198,c)
);
}
);
width = 700;
}
);
unicode = 76;
},
{
glyphname = M;
lastChange = "2021-04-28 03:54:41 +0000";
layers = (
{
layerId = m01;
shapes = (
{
attr = {
fillColor = (0,255);
};
closed = 1;
nodes = (
(229,768,o),
(199,800,o),
(162,800,c),
(125,799,o),
(100,700,o),
(100,700,c),
(100,700,o),
(132,744,o),
(163,743,c),
(190,743,o),
(206,704,o),
(218,604,c),
(185,452,o),
(121,-1,o),
(221,0,c),
(321,0,o),
(341,450,o),
(268,674,c),
(282,715,o),
(301,742,o),
(324,743,c),
(338,744,o),
(358,682,o),
(378,594,c),
(348,376,o),
(344,-2,o),
(450,0,c),
(580,2,o),
(514,460,o),
(425,683,c),
(443,732,o),
(467,744,o),
(509,742,c),
(587,738,o),
(633,37,o),
(897,42,c),
(959,43,o),
(1000,200,o),
(1000,200,c),
(1000,200,o),
(941,72,o),
(897,86,c),
(756,129,o),
(694,799,o),
(518,800,c),
(468,801,o),
(433,769,o),
(410,718,c),
(386,770,o),
(361,800,o),
(338,800,c),
(302,800,o),
(273,768,o),
(251,716,c)
);
},
{
attr = {
fillColor = (0,255);
};
closed = 1;
nodes = (
(243,276,o),
(236,23,o),
(215,23,c),
(199,23,o),
(210,343,o),
(229,488,c)
);
},
{
attr = {
fillColor = (0,255);
};
closed = 1;
nodes = (
(441,284,o),
(469,33,o),
(448,26,c),
(435,21,o),
(397,327,o),
(402,489,c)
);
}
);
width = 1000;
}
);
unicode = 77;
},
{
glyphname = N;
lastChange = "2021-04-29 04:41:49 +0000";
layers = (
{
layerId = m01;
shapes = (
{
attr = {
fillColor = (0,255);
};
closed = 1;
nodes = (
(223,708,o),
(224,800,o),
(302,800,c),
(336,800,o),
(312,752,o),
(271,694,c),
(264,643,o),
(256,571,o),
(249,503,c),
(267,540,o),
(292,556,o),
(327,535,c),
(436,468,o),
(381,56,o),
(565,137,c),
(623,162,o),
(691,322,o),
(731,467,c),
(720,566,o),
(679,742,o),
(764,745,c),
(864,748,o),
(837,525,o),
(775,338,c),
(796,220,o),
(833,117,o),
(901,118,c),
(946,119,o),
(1000,200,o),
(1000,200,c),
(1000,200,o),
(945,100,o),
(901,100,c),
(831,100,o),
(787,188,o),
(760,295,c),
(724,196,o),
(679,114,o),
(642,99,c),
(394,-4,o),
(357,418,o),
(329,483,c),
(287,579,o),
(259,432,o),
(242,282,c),
(251,154,o),
(273,-2,o),
(240,0,c),
(176,3,o),
(200,136,o),
(203,215,c),
(188,273,o),
(175,333,o),
(176,382,c),
(177,441,o),
(191,532,o),
(205,611,c),
(154,550,o),
(100,497,o),
(100,497,c),
(100,497,o),
(158,564,o),
(209,633,c)
);
},
{
attr = {
fillColor = (0,255);
};
closed = 1;
nodes = (
(225,86,o),
(222,12,o),
(234,23,c),
(248,36,o),
(238,77,o),
(228,119,c)
);
},
{
attr = {
fillColor = (0,255);
};
closed = 1;
nodes = (
(767,629,o),
(773,690,o),
(757,707,c),
(740,723,o),
(749,627,o),
(753,557,c)
);
},
{
attr = {
fillColor = (0,255);
};
closed = 1;
nodes = (
(288,751,o),
(297,768,o),
(298,779,c),
(300,792,o),
(273,765,o),
(275,730,c)
);
}
);
width = 1000;
}
);
unicode = 78;
},
{
glyphname = O;
lastChange = "2021-04-29 04:43:49 +0000";
layers = (
{
layerId = m01;
shapes = (
{
attr = {
fillColor = (0,255);
};
closed = 1;
nodes = (
(268,798,o),
(426,250,o),
(564,168,c),
(511,106,o),
(450,73,o),
(397,97,c),
(-3,280,o),
(448,791,o),
(448,791,c),
(448,791,o),
(98,643,o),
(100,298,c),
(100,163,o),
(248,0,o),
(350,0,c),
(460,0,o),
(550,58,o),
(616,144,c),
(640,137,o),
(668,132,o),
(698,132,c),
(757,132,o),
(800,200,o),
(800,200,c),
(800,200,o),
(733,159,o),
(697,159,c),
(674,160,o),
(653,163,o),
(634,169,c),
(791,406,o),
(783,802,o),
(533,800,c)
);
},
{
attr = {
fillColor = (0,255);
};
closed = 1;
nodes = (
(464,267,o),
(344,870,o),
(558,761,c),
(761,657,o),
(698,351,o),
(583,192,c)
);
}
);
width = 800;
}
);
unicode = 79;
},
{
glyphname = P;
lastChange = "2021-04-29 04:46:06 +0000";
layers = (
{
layerId = m01;
shapes = (
{
attr = {
fillColor = (0,255);
};
closed = 1;
nodes = (
(536,47,o),
(434,34,o),
(433,9,c),
(433,-1,o),
(477,0,o),
(501,0,c),
(558,0,o),
(610,22,o),
(655,56,c),
(706,68,o),
(757,80,o),
(784,91,c),
(845,116,o),
(900,200,o),
(900,200,c),
(900,200,o),
(828,135,o),
(789,113,c),
(767,100,o),
(724,88,o),
(678,76,c),
(837,224,o),
(871,540,o),
(632,589,c),
(361,645,o),
(332,12,o),
(249,54,c),
(89,136,o),
(217,694,o),
(503,727,c),
(566,734,o),
(701,697,o),
(701,697,c),
(701,697,o),
(580,800,o),
(501,800,c),
(280,798,o),
(100,507,o),
(100,350,c),
(100,222,o),
(161,0,o),
(255,0,c),
(488,0,o),
(467,594,o),
(627,547,c),
(847,483,o),
(693,158,o),
(551,49,c)
);
},
{
attr = {
fillColor = (0,255);
};
closed = 1;
nodes = (
(504,20,o),
(486,14,o),
(470,14,c),
(456,14,o),
(508,28,o),
(523,30,c)
);
}
);
width = 900;
}
);
unicode = 80;
},
{
glyphname = Q;
lastChange = "2021-04-30 13:39:55 +0000";
layers = (
{
layerId = m01;
shapes = (
{
attr = {
fillColor = (0,255);
};
closed = 1;
nodes = (
(522,47,o),
(501,50,o),
(485,41,c),
(461,27,o),
(446,1,o),
(500,0,c),
(513,0,o),
(528,6,o),
(543,22,c),
(563,19,o),
(586,16,o),
(602,17,c),
(661,19,o),
(800,200,o),
(800,200,c),
(800,200,o),
(662,46,o),
(602,33,c),
(592,31,o),
(575,34,o),
(558,39,c),
(687,205,o),
(839,802,o),
(501,801,c),
(220,800,o),
(81,348,o),
(235,352,c),
(278,353,o),
(354,415,o),
(361,375,c),
(423,20,o),
(100,0,o),
(100,0,c),
(100,0,o),
(518,-45,o),
(374,437,c),
(349,522,o),
(269,412,o),
(224,410,c),
(99,405,o),
(288,794,o),
(459,730,c),
(722,631,o),
(595,172,o),
(527,47,c)
);
},
{
attr = {
fillColor = (0,255);
};
closed = 1;
nodes = (
(509,21,o),
(505,17,o),
(502,16,c),
(479,10,o),
(502,29,o),
(514,27,c)
);
}
);
width = 800;
}
);
unicode = 81;
},
{
glyphname = R;
lastChange = "2021-04-30 14:55:01 +0000";
layers = (
{
layerId = m01;
shapes = (
{
attr = {
fillColor = (0,255);
};
closed = 1;
nodes = (
(272,680,l),
(272,680,o),
(228,479,o),
(205,350,c),
(185,236,o),
(200,0,o),
(200,0,c),
(200,0,o),
(369,605,o),
(670,719,c),
(726,740,o),
(689,619,o),
(654,518,c),
(577,301,o),
(500,0,o),
(500,0,c),
(500,0,o),
(630,72,o),
(696,104,c),
(764,136,o),
(900,198,o),
(900,198,c),
(900,198,o),
(762,169,o),
(700,142,c),
(642,116,o),
(531,32,o),
(531,32,c),
(531,32,o),
(690,362,o),
(741,477,c),
(783,573,o),
(1051,803,o),
(701,801,c),
(361,799,o),
(210,50,o),
(210,50,c),
(210,50,o),
(218,249,o),
(243,346,c),
(275,471,o),
(346,801,o),
(346,801,c),
(100,500,l)
);
}
);
width = 900;
}
);
unicode = 82;
},
{
glyphname = S;
lastChange = "2021-04-30 13:23:03 +0000";
layers = (
{
layerId = m01;
shapes = (
{
attr = {
fillColor = (0,255);
};
closed = 1;
nodes = (
(478,78,o),
(416,0,o),
(462,0,c),
(482,1,o),
(513,40,o),
(544,100,c),
(591,128,o),
(650,158,o),
(701,174,c),
(766,194,o),
(900,200,o),
(900,200,c),
(900,200,o),
(744,205,o),
(680,186,c),
(647,176,o),
(600,151,o),
(557,126,c),
(626,270,o),
(687,491,o),
(624,524,c),
(334,677,o),
(120,55,o),
(120,55,c),
(120,55,o),
(293,627,o),
(500,762,c),
(559,801,o),
(700,695,o),
(700,695,c),
(700,695,o),
(603,800,o),
(500,800,c),
(147,801,o),
(100,0,o),
(100,0,c),
(100,0,o),
(386,526,o),
(499,499,c),
(570,482,o),
(539,220,o),
(500,92,c)
);
},
{
attr = {
fillColor = (0,255);
};
closed = 1;
nodes = (
(485,50,o),
(478,34,o),
(471,28,c),
(450,11,o),
(481,61,o),
(492,68,c)
);
}
);
width = 900;
}
);
unicode = 83;
},
{
glyphname = T;
lastChange = "2021-05-01 14:21:07 +0000";
layers = (
{
layerId = m01;
shapes = (
{
attr = {
fillColor = (0,255);
};
closed = 1;
nodes = (
(438,803,o),
(433,751,o),
(433,728,c),
(301,676,o),
(100,600,o),
(100,600,c),
(100,600,o),
(327,634,o),
(430,671,c),
(427,596,o),
(426,481,o),
(427,409,c),
(430,280,o),
(499,0,o),
(499,0,c),
(499,0,o),
(564,132,o),
(597,165,c),
(620,189,o),
(700,200,o),
(700,200,c),
(700,200,o),
(608,201,o),
(583,179,c),
(552,152,o),
(512,49,o),
(512,49,c),
(512,49,o),
(510,298,o),
(506,421,c),
(503,501,o),
(502,614,o),
(502,692,c),
(533,713,o),
(558,799,o),
(538,800,c)
);
},
{
attr = {
fillColor = (0,255);
};
closed = 1;
nodes = (
(500,753,o),
(500,791,o),
(531,787,c),
(539,786,o),
(530,759,o),
(507,749,c),
(505,748,o),
(503,747,o),
(500,746,c)
);
}
);
width = 700;
}
);
unicode = 84;
},
{
glyphname = U;
lastChange = "2021-05-01 14:24:37 +0000";
layers = (
{
layerId = m01;
shapes = (
{
attr = {
fillColor = (0,255);
};
closed = 1;
nodes = (
(490,108,o),
(456,103,o),
(413,103,c),
(273,104,o),
(360,800,o),
(360,800,c),
(360,800,o),
(233,696,o),
(190,645,c),
(152,601,o),
(100,494,o),
(100,494,c),
(100,494,o),
(187,603,o),
(221,642,c),
(261,686,o),
(340,761,o),
(340,761,c),
(340,761,o),
(64,2,o),
(404,1,c),
(476,0,o),
(538,12,o),
(592,33,c),
(592,50,o),
(592,155,o),
(592,155,c),
(592,155,o),
(628,155,o),
(640,155,c),
(600,356,o),
(649,767,o),
(734,769,c),
(881,773,o),
(928,312,o),
(640,155,c),
(618,155,o),
(592,155,o),
(592,155,c),
(592,155,o),
(592,53,o),
(592,33,c),
(620,12,o),
(656,0,o),
(700,0,c),
(801,1,o),
(1000,200,o),
(1000,200,c),
(1000,200,o),
(790,50,o),
(710,46,c),
(694,45,o),
(676,52,o),
(665,69,c),
(967,264,o),
(909,800,o),
(732,801,c),
(588,803,o),
(430,337,o),
(525,116,c)
);
}
);
width = 1000;
}
);
unicode = 85;
},
{
glyphname = V;
lastChange = "2021-05-01 14:26:06 +0000";
layers = (
{
layerId = m01;
shapes = (
{
attr = {
fillColor = (0,255);
};
closed = 1;
nodes = (
(456,286,o),
(379,223,o),
(316,173,c),
(260,127,o),
(165,0,o),
(165,0,c),
(165,0,o),
(118,135,o),
(122,201,c),
(138,426,o),
(278,717,o),
(278,717,c),
(278,717,o),
(238,691,o),
(213,659,c),
(182,620,o),
(100,500,o),
(100,500,c),
(100,500,o),
(142,593,o),
(174,636,c),
(210,685,o),
(344,800,o),
(344,800,c),
(344,800,o),
(217,382,o),
(194,258,c),
(183,199,o),
(175,50,o),
(175,50,c),
(175,50,o),
(240,182,o),
(288,235,c),
(328,278,o),
(421,353,o),
(517,433,c),
(536,449,l),
(700,586,o),
(865,731,o),
(782,748,c),
(596,786,o),
(547,564,o),
(537,503,c),
(537,502,l),
(537,502,o),
(533,481,o),
(536,449,c),
(517,433,l),
(515,445,o),
(516,503,o),
(516,503,c),
(517,503,l),
(518,523,o),
(542,800,o),
(833,800,c),
(1001,800,o),
(550,379,o),
(553,370,c),
(533,354,l)
);
},
{
attr = {
fillColor = (0,255);
};
closed = 1;
nodes = (
(572,318,o),
(612,259,o),
(691,218,c),
(752,187,o),
(900,200,o),
(900,200,c),
(900,200,o),
(739,164,o),
(668,199,c),
(592,237,o),
(553,297,o),
(533,354,c),
(553,370,l)
);
}
);
width = 900;
}
);
unicode = 86;
},
{
glyphname = W;
lastChange = "2021-05-01 14:28:04 +0000";
layers = (
{
layerId = m01;
shapes = (
{
attr = {
fillColor = (0,255);
};
closed = 1;
nodes = (
(485,116,o),
(339,1,o),
(402,0,c),
(442,-1,o),
(552,77,o),
(645,164,c),
(687,181,o),
(727,196,o),
(756,203,c),
(821,219,o),
(1000,202,o),
(1000,202,c),
(1000,202,o),
(860,236,o),
(794,226,c),
(756,220,o),
(717,210,o),
(679,198,c),
(704,222,o),
(725,247,o),
(743,270,c),
(844,403,o),
(1000,795,o),
(1000,795,c),
(1000,795,o),
(874,724,o),
(761,668,c),
(779,746,o),
(760,800,o),
(702,800,c),
(617,800,o),
(403,580,o),
(570,563,c),
(603,560,o),
(599,566,o),
(629,577,c),
(560,456,o),
(441,325,o),
(370,269,c),
(297,212,o),
(166,85,o),
(166,85,c),
(166,85,o),
(274,314,o),
(308,433,c),
(342,549,o),
(381,800,o),
(381,800,c),
(100,500,l),
(312,695,l),
(312,695,o),
(252,493,o),
(212,367,c),
(172,246,o),
(100,0,o),
(100,0,c),
(100,0,o),
(318,135,o),
(416,197,c),
(599,312,o),
(706,499,o),
(749,626,c),
(826,661,o),
(873,682,o),
(873,682,c),
(873,682,o),
(733,393,o),
(674,300,c),
(638,243,o),
(611,219,o),
(544,144,c)
);
},
{
attr = {
fillColor = (0,255);
};
closed = 1;
nodes = (
(465,56,o),
(428,21,o),
(410,16,c),
(372,6,o),
(473,84,o),
(505,100,c)
);
},
{
attr = {
fillColor = (0,255);
};
closed = 1;
nodes = (
(629,607,o),
(611,598,o),
(601,600,c),
(446,635,o),
(700,795,o),
(699,747,c),
(699,721,o),
(680,673,o),
(650,616,c)
);
}
);
width = 1000;
}
);
unicode = 87;
},
{
glyphname = X;
lastChange = "2021-05-01 14:29:40 +0000";
layers = (
{
layerId = m01;
shapes = (
{
attr = {
fillColor = (0,255);
};
closed = 1;
nodes = (
(379,329,o),
(299,247,o),
(227,158,c),
(207,134,o),
(189,110,o),
(172,85,c),
(159,66,o),
(148,46,o),
(142,24,c),
(142,22,o),
(141,20,o),
(142,18,c),
(142,16,o),
(142,14,o),
(142,12,c),
(147,-4,o),
(167,0,o),
(180,0,c),
(186,1,o),
(191,2,o),
(197,3,c),
(203,4,o),
(210,6,o),
(216,7,c),
(253,18,o),
(288,32,o),
(320,53,c),
(351,74,o),
(377,101,o),
(403,128,c),
(375,106,o),
(346,84,o),
(315,66,c),
(292,53,o),
(267,44,o),
(242,34,c),
(230,30,o),
(218,25,o),
(206,21,c),
(201,19,o),
(197,18,o),
(192,17,c),
(187,15,o),
(182,14,o),
(178,14,c),
(175,13,o),
(172,13,o),
(170,13,c),
(165,13,o),
(162,17,o),
(163,21,c),
(166,32,o),
(174,40,o),
(180,48,c),
(205,80,o),
(204,81,o),
(230,113,c),
(300,200,o),
(383,278,o),
(471,348,c),
(471,318,o),
(476,288,o),
(482,259,c),
(486,239,o),
(490,219,o),
(496,199,c),
(519,124,o),
(560,45,o),
(636,13,c),
(648,9,o),
(659,5,o),
(671,3,c),
(688,0,o),
(707,0,o),
(724,0,c),
(736,2,o),
(748,7,o),
(760,13,c),
(778,22,o),
(793,29,o),
(811,40,c),
(841,58,o),
(868,80,o),
(895,103,c),
(932,133,o),
(967,166,o),
(1000,200,c),
(953,176,o),
(905,154,o),
(855,136,c),
(821,123,o),
(813,121,o),
(778,111,c),
(755,105,o),
(733,98,o),
(710,98,c),
(703,97,o),
(693,99,o),
(687,100,c),
(645,109,o),
(622,153,o),
(608,189,c),
(605,194,o),
(603,199,o),
(601,205,c),
(596,218,o),
(591,234,o),
(587,248,c),
(583,263,o),
(579,277,o),
(576,292,c),
(569,320,o),
(563,350,o),
(558,379,c),
(553,408,l),
(588,432,o),
(628,458,o),
(665,480,c),
(712,508,o),
(797,558,o),
(843,586,c),
(889,613,o),
(936,641,o),
(974,679,c),
(976,681,o),
(978,683,o),
(980,685,c),
(992,701,o),
(1002,729,o),
(984,745,c),
(980,748,o),
(977,750,o),
(972,752,c),
(969,754,o),
(962,756,o),
(958,756,c),
(916,761,o),
(874,750,o),
(833,739,c),
(795,727,o),
(756,713,o),
(719,698,c),
(761,706,o),
(782,710,o),
(824,717,c),
(838,720,o),
(853,722,o),
(868,724,c),
(875,725,o),
(882,726,o),
(890,726,c),
(895,727,o),
(900,727,o),
(906,728,c),
(916,728,o),
(927,730,o),
(937,726,c),
(943,724,o),
(946,717,o),
(942,712,c),
(938,709,o),
(935,706,o),
(931,704,c),
(928,701,o),
(924,698,o),
(921,696,c),
(907,688,o),
(894,680,o),
(880,672,c),
(866,664,o),
(852,656,o),
(838,648,c),
(737,594,o),
(634,542,o),
(541,474,c),
(538,492,o),
(535,509,o),
(532,526,c),
(529,544,o),
(526,561,o),
(522,578,c),
(519,595,o),
(515,612,o),
(511,630,c),
(508,644,o),
(502,666,o),
(498,680,c),
(495,690,o),
(492,699,o),
(489,708,c),
(487,713,o),
(486,718,o),
(484,722,c),
(470,758,o),
(444,798,o),
(401,800,c),
(397,801,l),
(382,801,o),
(367,797,o),
(353,793,c),
(297,777,o),
(250,735,o),
(213,691,c),
(202,677,o),
(192,664,o),
(182,649,c),
(164,623,o),
(153,605,o),
(138,577,c),
(124,551,o),
(111,528,o),
(100,500,c),
(115,526,o),
(131,548,o),
(148,572,c),
(177,615,o),
(208,659,o),
(245,696,c),
(258,709,o),
(270,720,o),
(285,732,c),
(288,735,o),
(292,738,o),
(297,741,c),
(317,755,o),
(347,771,o),
(373,762,c),
(405,752,o),
(416,716,o),
(424,688,c),
(426,681,o),
(428,675,o),
(429,669,c),
(432,654,o),
(434,640,o),
(437,626,c),
(439,610,o),
(441,593,o),
(443,577,c),
(446,560,o),
(448,542,o),
(450,524,c),
(454,486,o),
(458,447,o),
(463,408,c)
);
}
);
width = 1000;
}
);
unicode = 88;
},
{
glyphname = Y;
lastChange = "2021-05-01 14:31:20 +0000";
layers = (
{
layerId = m01;
shapes = (
{
attr = {
fillColor = (0,255);
};
closed = 1;
nodes = (
(675,234,o),
(1000,200,o),
(1000,200,c),
(1000,200,o),
(666,251,o),
(588,304,c),
(790,465,o),
(1041,766,o),
(845,769,c),
(458,776,o),
(479,378,o),
(514,323,c),
(472,288,o),
(433,263,o),
(401,256,c),
(357,245,o),
(319,233,o),
(287,219,c),
(312,283,o),
(351,359,o),
(366,408,c),
(405,535,o),
(398,799,o),
(398,799,c),
(398,799,o),
(272,658,o),
(211,601,c),
(175,567,o),
(100,499,o),
(100,499,c),
(100,499,o),
(176,539,o),
(211,561,c),
(297,618,o),
(338,697,o),
(338,697,c),
(338,697,o),
(337,514,o),
(304,400,c),
(288,345,o),
(262,266,o),
(235,195,c),
(165,156,o),
(47,0,o),
(132,0,c),
(179,0,o),
(226,79,o),
(266,168,c),
(307,187,o),
(360,203,o),
(426,211,c),
(460,215,o),
(509,242,o),
(564,282,c)
);
},
{
attr = {
fillColor = (0,255);
};
closed = 1;
nodes = (
(187,79,o),
(161,32,o),
(142,31,c),
(134,31,o),
(140,51,o),
(154,75,c),
(169,100,o),
(191,127,o),
(214,141,c)
);
},
{
attr = {
fillColor = (0,255);
};
closed = 1;
nodes = (
(519,404,o),
(503,740,o),
(827,729,c),
(861,728,o),
(693,494,o),
(544,354,c)
);
}
);
width = 1000;
}
);
unicode = 89;
},
{
glyphname = Z;
lastChange = "2021-05-01 14:32:48 +0000";
layers = (
{
layerId = m01;
shapes = (
{
attr = {
fillColor = (0,255);
};
closed = 1;
nodes = (
(532,106,o),
(385,0,o),
(500,0,c),
(544,0,o),
(594,52,o),
(634,124,c),
(663,136,o),
(695,146,o),
(731,153,c),
(819,170,o),
(1000,200,o),
(1000,200,c),
(1000,200,o),
(812,199,o),
(723,180,c),
(699,175,o),
(675,168,o),
(653,160,c),
(698,258,o),
(723,381,o),
(691,463,c),
(837,629,o),
(977,801,o),
(977,801,c),
(977,801,o),
(724,714,o),
(594,680,c),
(464,647,o),
(198,600,o),
(198,600,c),
(198,600,o),
(483,592,o),
(605,620,c),
(722,646,o),
(866,706,o),
(866,706,c),
(866,706,o),
(806,637,o),
(671,501,c),
(647,533,o),
(610,552,o),
(556,556,c),
(379,569,o),
(102,275,o),
(100,100,c),
(98,-23,o),
(342,121,o),
(426,188,c),
(476,228,o),
(556,311,o),
(639,405,c),
(663,327,o),
(632,216,o),
(591,134,c)
);
},
{
attr = {
fillColor = (0,255);
};
closed = 1;
nodes = (
(543,53,o),
(522,23,o),
(505,23,c),
(478,25,o),
(536,71,o),
(565,89,c)
);
},
{
attr = {
fillColor = (0,255);
};
closed = 1;
nodes = (
(525,357,o),
(437,271,o),
(387,231,c),
(317,172,o),
(179,92,o),
(176,130,c),
(173,165,o),
(459,531,o),
(577,480,c),
(594,472,o),
(607,461,o),
(617,448,c)
);
}
);
width = 1000;
}
);
unicode = 90;
},
{
glyphname = a;
lastChange = "2021-04-08 17:25:43 +0000";
layers = (
{
layerId = m01;
shapes = (
{
attr = {
fillColor = (0,255);
};
closed = 1;
nodes = (
(98,257,o),
(0,200,o),
(0,200,c),
(0,200,o),
(93,244,o),
(197,294,c),
(182,225,o),
(177,153,o),
(170,88,c),
(132,11,o),
(106,-56,o),
(92,-81,c),
(83,-98,o),
(77,-118,o),
(70,-136,c),
(44,-154,o),
(25,-167,o),
(18,-177,c),
(1,-203,o),
(33,-200,o),
(33,-200,c),
(29,-195,l),
(29,-195,o),
(22,-194,o),
(31,-184,c),
(35,-179,o),
(46,-174,o),
(59,-166,c),
(58,-169,o),
(57,-171,o),
(56,-173,c),
(44,-197,o),
(30,-195,o),
(30,-195,c),
(33,-200,l),
(33,-200,o),
(48,-202,o),
(62,-180,c),
(65,-174,o),
(69,-167,o),
(74,-158,c),
(92,-148,o),
(114,-133,o),
(136,-113,c),
(179,-73,o),
(201,-14,o),
(221,59,c),
(315,-33,o),
(428,23,o),
(428,23,c),
(428,23,l),
(412,25,o),
(396,27,o),
(380,30,c),
(380,30,l),
(380,30,o),
(309,-7,o),
(227,79,c),
(228,83,o),
(229,87,o),
(230,91,c),
(267,59,o),
(321,40,o),
(380,30,c),
(428,23,l),
(451,21,o),
(473,20,o),
(495,20,c),
(706,18,o),
(800,200,o),
(800,200,c),
(800,200,o),
(749,74,o),
(515,53,c),
(503,52,o),
(491,51,o),
(479,50,c),
(547,89,o),
(696,188,o),
(700,328,c),
(704,446,o),
(578,446,o),
(507,432,c),
(412,412,o),
(336,343,o),
(274,262,c),
(281,290,o),
(288,316,o),
(295,341,c),
(356,371,o),
(411,399,o),
(442,418,c),
(498,449,o),
(590,518,o),
(588,545,c),
(585,573,o),
(548,630,o),
(430,584,c),
(279,526,o),
(225,425,o),
(199,307,c)
);
},
{
attr = {
fillColor = (0,255);
};
closed = 1;
nodes = (
(133,-53,o),
(119,-74,o),
(110,-90,c),
(105,-99,o),
(100,-109,o),
(94,-119,c),
(121,-96,o),
(137,-65,o),
(149,-28,c)
);
},
{
attr = {
fillColor = (0,255);
};
closed = 1;
nodes = (
(343,52,o),
(277,66,o),
(239,107,c),
(274,158,o),
(303,199,o),
(306,204,c),
(391,336,o),
(470,401,o),
(525,417,c),
(617,444,o),
(646,337,o),
(621,277,c),
(562,133,o),
(452,69,o),
(409,49,c)
);
},
{
attr = {
fillColor = (0,255);
};
closed = 1;
nodes = (
(576,502,o),
(469,440,o),
(400,403,c),
(376,390,o),
(335,372,o),
(296,352,c),
(321,438,o),
(355,506,o),
(432,549,c),
(522,599,o),
(592,570,o),
(586,545,c)
);
}
);
width = 800;
}
);
unicode = 97;
},
{
glyphname = b;
lastChange = "2021-04-06 13:10:46 +0000";
layers = (
{
layerId = m01;
shapes = (
{
attr = {
fillColor = (0,255);
};
closed = 1;
nodes = (
(371,649,o),
(552,822,o),
(569,797,c),
(585,773,o),
(524,648,o),
(472,573,c),
(464,562,o),
(430,520,o),
(422,511,c),
(491,532,o),
(567,547,o),
(590,526,c),
(706,423,o),
(549,286,o),
(433,196,c),
(381,155,o),
(320,144,o),
(320,144,c),
(320,145,l),
(306,144,o),
(242,148,o),
(246,289,c),
(246,317,o),
(250,345,o),
(256,372,c),
(208,328,o),
(166,271,o),
(145,175,c),
(133,121,o),
(152,68,o),
(204,75,c),
(336,94,o),
(700,200,o),
(700,200,c),
(700,200,o),
(281,-1,o),
(144,-1,c),
(84,-1,o),
(46,131,o),
(74,193,c),
(109,268,o),
(124,293,o),
(155,334,c),
(73,281,o),
(0,200,o),
(0,200,c),
(0,200,o),
(135,374,o),
(223,425,c),
(225,426,o),
(227,428,o),
(230,429,c),
(252,450,o),
(273,466,o),
(293,480,c)
);
},
{
attr = {
fillColor = (0,255);
};
closed = 1;
nodes = (
(345,164,o),
(371,174,o),
(418,216,c),
(502,292,o),
(559,366,o),
(548,470,c),
(545,495,o),
(436,463,o),
(316,419,c),
(307,413,o),
(298,406,o),
(289,399,c),
(280,366,o),
(272,330,o),
(268,293,c),
(252,160,o),
(332,162,o),
(332,162,c),
(332,162,l)
);
},
{
attr = {
fillColor = (0,255);
};
closed = 1;
nodes = (
(352,521,o),
(374,539,o),
(395,564,c),
(453,636,o),
(581,777,o),
(561,786,c),
(546,793,o),
(400,662,o),
(328,504,c)
);
}
);
width = 700;
}
);
unicode = 98;
},
{
glyphname = c;
lastChange = "2021-04-09 11:31:46 +0000";
layers = (
{
layerId = m01;
shapes = (
{
attr = {
fillColor = (0,255);
};
closed = 1;
nodes = (
(146,247,o),
(0,200,o),
(0,200,c),
(0,200,o),
(122,222,o),
(230,287,c),
(207,232,o),
(176,127,o),
(174,64,c),
(164,-154,o),
(243,-200,o),
(301,-200,c),
(455,-200,o),
(700,200,o),
(700,200,c),
(700,200,o),
(378,-179,o),
(307,-158,c),
(173,-118,o),
(275,228,o),
(336,360,c),
(441,445,o),
(628,598,o),
(540,600,c),
(456,602,o),
(311,456,o),
(245,319,c)
);
},
{
attr = {
fillColor = (0,255);
};
closed = 1;
nodes = (
(377,459,o),
(412,503,o),
(441,529,c),
(470,556,o),
(534,587,o),
(541,578,c),
(545,571,o),
(435,474,o),
(348,401,c)
);
}
);
width = 700;
}
);
unicode = 99;
},
{
glyphname = d;
lastChange = "2021-04-06 13:12:11 +0000";
layers = (
{
layerId = m01;
shapes = (
{
attr = {
fillColor = (0,255);
};
closed = 1;
nodes = (
(394,546,o),
(485,794,o),
(576,790,c),
(670,786,o),
(468,322,o),
(274,102,c),
(272,81,o),
(273,63,o),
(277,51,c),
(291,12,o),
(600,187,o),
(600,187,c),
(600,187,o),
(255,-52,o),
(224,8,c),
(220,17,o),
(218,29,o),
(218,45,c),
(179,11,o),
(142,0,o),
(109,0,c),
(-141,-2,o),
(298,339,o),
(295,342,c),
(289,350,o),
(0,200,o),
(0,200,c),
(0,200,o),
(297,366,o),
(313,357,c),
(314,357,o),
(314,357,o),
(314,357,c)
);
},
{
attr = {
fillColor = (0,255);
};
closed = 1;
nodes = (
(272,296,o),
(-21,56,o),
(74,13,c),
(101,1,o),
(175,91,o),
(258,214,c),
(273,256,o),
(291,302,o),
(310,348,c)
);
},
{
attr = {
fillColor = (0,255);
};
closed = 1;
nodes = (
(475,560,o),
(582,758,o),
(560,764,c),
(524,775,o),
(427,543,o),
(355,364,c)
);
}
);
width = 600;
}
);
unicode = 100;
},
{
glyphname = e;
lastChange = "2021-04-06 05:59:11 +0000";
layers = (
{
layerId = m01;
shapes = (
{
attr = {
fillColor = (0,255);
};
closed = 1;
nodes = (
(412,599,o),
(285,532,o),
(224,419,c),
(197,368,o),
(179,319,o),
(170,273,c),
(84,233,o),
(0,200,o),
(0,200,c),
(0,200,o),
(79,217,o),
(165,243,c),
(149,104,o),
(215,2,o),
(328,1,c),
(401,0,o),
(600,200,o),
(600,200,c),
(600,200,o),
(400,12,o),
(328,14,c),
(202,16,o),
(202,139,o),
(241,267,c),
(290,285,o),
(335,306,o),
(359,327,c),
(588,529,o),
(498,601,o),
(452,600,c)
);
},
{
attr = {
fillColor = (0,255);
};
closed = 1;
nodes = (
(264,337,o),
(273,358,o),
(281,378,c),
(335,509,o),
(433,587,o),
(452,588,c),
(494,589,o),
(396,419,o),
(332,364,c),
(315,350,o),
(288,333,o),
(257,316,c)
);
}
);
width = 600;
}
);
unicode = 101;
},
{
glyphname = f;
lastChange = "2021-04-06 13:15:03 +0000";
layers = (
{
layerId = m01;
shapes = (
{
attr = {
fillColor = (0,255);
};
closed = 1;
nodes = (
(336,659,o),
(617,801,o),
(658,801,c),
(732,800,o),
(707,616,o),
(455,454,c),
(418,431,o),
(361,400,o),
(299,368,c),
(277,305,o),
(251,217,o),
(229,131,c),
(244,127,o),
(264,121,o),
(283,107,c),
(492,135,o),
(700,200,o),
(700,200,c),
(700,200,o),
(515,121,o),
(298,92,c),
(314,75,o),
(325,49,o),
(326,13,c),
(327,-44,o),
(269,-200,o),
(195,-201,c),
(152,-202,o),
(130,-75,o),
(145,84,c),
(127,87,o),
(118,92,o),
(119,101,c),
(120,113,o),
(133,121,o),
(149,125,c),
(157,186,o),
(169,251,o),
(188,313,c),
(65,254,o),
(0,200,o),
(0,200,c),
(0,200,o),
(70,262,o),
(193,330,c),
(204,365,o),
(217,399,o),
(232,432,c)
);
},
{
attr = {
fillColor = (0,255);
};
closed = 1;
nodes = (
(247,86,o),
(231,85,o),
(217,84,c),
(184,-57,o),
(166,-183,o),
(203,-184,c),
(236,-184,o),
(300,-36,o),
(298,13,c),
(296,49,o),
(281,73,o),
(264,88,c)
);
},
{
attr = {
fillColor = (0,255);
};
closed = 1;
nodes = (
(140,102,o),
(135,100,o),
(135,97,c),
(135,95,o),
(139,94,o),
(145,94,c),
(146,97,o),
(146,101,o),
(147,105,c)
);
},
{
attr = {
fillColor = (0,255);
};
closed = 1;
nodes = (
(224,111,o),
(212,115,o),
(224,111,c),
(223,107,o),
(222,103,o),
(221,99,c),
(228,100,o),
(236,101,o),
(244,102,c),
(237,106,o),
(224,111,o),
(224,111,c)
);
},
{
attr = {
fillColor = (0,255);
};
closed = 1;
nodes = (
(365,429,o),
(415,461,o),
(446,486,c),
(539,560,o),
(721,761,o),
(672,764,c),
(598,769,o),
(365,542,o),
(316,415,c),
(313,409,o),
(311,402,o),
(308,395,c)
);
}
);
width = 700;
}
);
unicode = 102;
},
{
glyphname = g;
lastChange = "2021-04-09 11:29:56 +0000";
layers = (
{
layerId = m01;
shapes = (
{
attr = {
fillColor = (0,255);
};
closed = 1;
nodes = (
(80,226,o),
(0,200,o),
(0,200,c),
(0,200,o),
(82,213,o),
(165,200,c),
(165,185,o),
(157,83,o),
(157,68,c),
(160,-66,o),
(252,-200,o),
(400,-200,c),
(544,-200,o),
(700,200,o),
(700,200,c),
(700,200,o),
(569,-136,o),
(399,-144,c),
(311,-148,o),
(235,-83,o),
(234,66,c),
(234,90,o),
(239,162,o),
(249,189,c),
(285,190,o),
(315,192,o),
(358,205,c),
(357,182,o),
(359,111,o),
(402,109,c),
(454,108,o),
(503,195,o),
(528,280,c),
(612,328,o),
(664,361,o),
(664,415,c),
(665,446,o),
(604,454,o),
(548,448,c),
(551,532,o),
(564,599,o),
(501,599,c),
(329,598,o),
(188,457,o),
(168,214,c)
);
},
{
attr = {
fillColor = (0,255);
};
closed = 1;
nodes = (
(448,210,o),
(420,143,o),
(407,143,c),
(380,142,o),
(382,195,o),
(384,214,c),
(409,224,o),
(440,248,o),
(464,259,c)
);
},
{
attr = {
fillColor = (0,255);
};
closed = 1;
nodes = (
(490,435,o),
(482,432,o),
(476,429,c),
(366,372,o),
(357,220,o),
(357,219,c),
(319,207,o),
(296,199,o),
(253,204,c),
(294,402,o),
(421,546,o),
(473,545,c),
(495,544,o),
(506,506,o),
(498,438,c)
);
},
{
attr = {
fillColor = (0,255);
};
closed = 1;
nodes = (
(482,333,o),
(478,315,o),
(466,275,c),
(442,263,o),
(411,241,o),
(385,230,c),
(385,230,o),
(385,314,o),
(477,370,c),
(481,373,o),
(485,375,o),
(489,378,c)
);
},
{
attr = {
fillColor = (0,255);
};
closed = 1;
nodes = (
(541,336,o),
(542,360,o),
(545,399,c),
(587,410,o),
(625,408,o),
(625,382,c),
(625,352,o),
(591,334,o),
(531,298,c)
);
}
);
width = 700;
}
);
unicode = 103;
},
{
glyphname = h;
lastChange = "2021-04-06 10:01:20 +0000";
layers = (
{
layerId = m01;
shapes = (
{
attr = {
fillColor = (0,255);
};
closed = 1;
nodes = (
(240,617,o),
(252,799,o),
(335,799,c),
(356,799,o),
(300,642,o),
(258,559,c),
(253,522,o),
(247,485,o),
(241,455,c),
(285,505,o),
(349,562,o),
(379,543,c),
(451,498,o),
(230,70,o),
(347,71,c),
(396,71,o),
(600,200,o),
(600,200,c),
(600,200,o),
(400,13,o),
(343,13,c),
(167,13,o),
(333,450,o),
(315,469,c),
(299,486,o),
(263,424,o),
(223,377,c),
(192,235,o),
(143,0,o),
(100,0,c),
(-26,1,o),
(174,371,o),
(199,404,c),
(204,433,o),
(210,462,o),
(215,489,c),
(138,373,o),
(0,200,o),
(0,200,c),
(0,200,o),
(135,387,o),
(190,483,c),
(201,503,o),
(214,527,o),
(228,553,c)
);
},
{
attr = {
fillColor = (0,255);
};
closed = 1;
nodes = (
(172,317,o),
(59,30,o),
(105,30,c),
(119,30,o),
(152,174,o),
(184,331,c)
);
},
{
attr = {
fillColor = (0,255);
};
closed = 1;
nodes = (
(304,707,o),
(336,778,o),
(323,778,c),
(296,776,o),
(270,661,o),
(266,629,c)
);
}
);
width = 600;
}
);
unicode = 104;
},
{
glyphname = i;
lastChange = "2021-04-09 03:16:49 +0000";
layers = (
{
layerId = m01;
shapes = (
{
attr = {
fillColor = (0,255);
};
closed = 1;
nodes = (
(176,474,l),
(176,474,o),
(-15,4,o),
(104,0,c),
(141,-2,o),
(300,200,o),
(300,200,c),
(300,200,o),
(123,2,o),
(118,44,c),
(107,138,o),
(200,542,o),
(200,542,c),
(0,200,l)
);
},
{
attr = {
fillColor = (0,255);
};
closed = 1;
nodes = (
(243,757,o),
(230,731,o),
(225,710,c),
(221,693,o),
(221,672,o),
(227,672,c),
(232,671,o),
(242,687,o),
(249,708,c),
(257,731,o),
(254,756,o),
(249,756,c)
);
}
);
width = 300;
}
);
unicode = 105;
},
{
glyphname = j;
lastChange = "2021-04-07 16:05:35 +0000";
layers = (
{
layerId = m01;
shapes = (
{
attr = {
fillColor = (0,255);
};
closed = 1;
nodes = (
(185,538,o),
(204,800,o),
(302,800,c),
(375,800,o),
(290,640,o),
(234,534,c),
(227,476,o),
(214,385,o),
(208,317,c),
(290,387,o),
(566,612,o),
(754,443,c),
(821,384,o),
(608,178,o),
(535,108,c),
(663,151,o),
(800,200,o),
(800,200,c),
(800,200,o),
(602,0,o),
(300,0,c),
(228,0,o),
(151,75,o),
(141,146,c),
(134,197,o),
(147,308,o),
(164,413,c),
(98,315,o),
(0,199,o),
(0,199,c),
(0,199,o),
(110,347,o),
(169,445,c)
);
},
{
attr = {
fillColor = (0,255);
};
closed = 1;
nodes = (
(510,105,o),
(803,369,o),
(717,425,c),
(568,522,o),
(292,320,o),
(206,257,c),
(202,203,o),
(203,184,o),
(206,157,c),
(212,100,o),
(273,66,o),
(331,70,c),
(369,73,o),
(510,105,o),
(510,105,c)
);
},
{
attr = {
fillColor = (0,255);
};
closed = 1;
nodes = (
(280,679,o),
(319,780,o),
(309,780,c),
(266,778,o),
(245,623,o),
(241,589,c)
);
}
);
width = 800;
}
);
unicode = 106;
},
{
glyphname = k;
lastChange = "2021-04-09 11:39:52 +0000";
layers = (
{
layerId = m01;
shapes = (
{
attr = {
fillColor = (0,255);
};
closed = 1;
nodes = (
(396,202,o),
(552,554,o),
(500,559,c),
(387,569,o),
(93,171,o),
(93,171,c),
(240,529,l),
(240,529,o),
(180,424,o),
(155,369,c),
(115,281,o),
(0,200,o),
(0,200,c),
(0,200,o),
(114,336,o),
(157,436,c),
(182,493,o),
(246,600,o),
(263,600,c),
(283,600,o),
(246,494,o),
(228,444,c),
(207,387,o),
(138,258,o),
(138,258,c),
(138,258,o),
(366,592,o),
(542,600,c),
(742,608,o),
(358,3,o),
(358,3,c),
(358,3,o),
(358,3,o),
(398,23,c),
(471,51,o),
(600,200,o),
(600,200,c),
(600,200,o),
(484,1,o),
(387,-25,c),
(329,-46,o),
(323,-48,o),
(321,-49,c),
(262,-138,o),
(235,-200,o),
(183,-200,c),
(-68,-200,o),
(276,-16,o),
(288,-9,c)
);
},
{
attr = {
fillColor = (0,255);
};
closed = 1;
nodes = (
(257,-68,o),
(257,-68,o),
(257,-68,c),
(249,-74,o),
(111,-161,o),
(188,-160,c),
(203,-159,o),
(226,-127,o),
(257,-68,c)
);
}
);
width = 600;
}
);
unicode = 107;
},
{
glyphname = l;
lastChange = "2021-04-08 13:05:27 +0000";
layers = (
{
layerId = m01;
shapes = (
{
attr = {
fillColor = (0,255);
};
closed = 1;
nodes = (
(176,542,o),
(201,800,o),
(286,800,c),
(340,800,o),
(269,584,o),
(218,456,c),
(198,262,o),
(180,24,o),
(216,25,c),
(310,26,o),
(400,200,o),
(400,200,c),
(400,200,o),
(303,0,o),
(201,0,c),
(84,-1,o),
(144,328,o),
(144,328,c),
(86,259,o),
(0,200,o),
(0,200,c),
(0,200,o),
(94,296,o),
(152,376,c)
);
},
{
attr = {
fillColor = (0,255);
};
closed = 1;
nodes = (
(266,625,o),
(311,772,o),
(280,770,c),
(256,769,o),
(234,606,o),
(224,514,c)
);
}
);
width = 400;
}
);
unicode = 108;
},
{
glyphname = m;
lastChange = "2021-04-08 13:07:05 +0000";
layers = (
{
layerId = m01;
shapes = (
{
attr = {
fillColor = (0,255);
};
closed = 1;
nodes = (
(226,422,o),
(225,548,o),
(195,547,c),
(158,547,o),
(0,200,o),
(0,200,c),
(0,200,o),
(129,602,o),
(199,603,c),
(260,603,o),
(279,516,o),
(275,408,c),
(334,509,o),
(403,601,o),
(458,599,c),
(487,598,o),
(504,504,o),
(508,390,c),
(544,440,o),
(588,477,o),
(641,478,c),
(803,480,o),
(764,99,o),
(823,52,c),
(882,7,o),
(1000,200,o),
(1000,200,c),
(1000,200,o),
(901,0,o),
(831,0,c),
(608,1,o),
(703,432,o),
(634,433,c),
(586,434,o),
(543,386,o),
(508,327,c),
(507,169,o),
(481,1,o),
(428,0,c),
(339,-1,o),
(410,199,o),
(451,291,c),
(454,423,o),
(448,556,o),
(428,556,c),
(398,556,o),
(328,442,o),
(269,334,c),
(250,174,o),
(193,0,o),
(152,0,c),
(93,0,o),
(147,151,o),
(147,151,c),
(148,151,l),
(150,156,o),
(176,218,o),
(214,295,c)
);
},
{
attr = {
fillColor = (0,255);
};
closed = 1;
nodes = (
(186,176,o),
(173,150,o),
(171,145,c),
(172,145,l),
(172,145,o),
(130,27,o),
(156,28,c),
(172,29,o),
(192,112,o),
(205,212,c)
);
},
{
attr = {
fillColor = (0,255);
};
closed = 1;
nodes = (
(429,156,o),
(384,29,o),
(423,30,c),
(434,30,o),
(445,118,o),
(450,211,c)
);
}
);
width = 1000;
}
);
unicode = 109;
},
{
glyphname = n;
lastChange = "2021-04-09 14:13:56 +0000";
layers = (
{
layerId = m01;
shapes = (
{
attr = {
fillColor = (0,255);
};
closed = 1;
nodes = (
(649,390,o),
(641,598,o),
(732,602,c),
(790,605,o),
(782,426,o),
(719,269,c),
(753,209,o),
(800,199,o),
(800,199,c),
(800,199,o),
(749,206,o),
(709,246,c),
(658,128,o),
(575,27,o),
(468,27,c),
(266,27,o),
(328,284,o),
(297,320,c),
(283,165,o),
(243,0,o),
(199,0,c),
(113,0,o),
(161,277,o),
(230,333,c),
(238,432,o),
(241,521,o),
(228,544,c),
(210,576,o),
(0,200,o),
(0,200,c),
(0,200,o),
(186,600,o),
(253,599,c),
(297,599,o),
(309,484,o),
(300,355,c),
(340,331,o),
(283,63,o),
(469,59,c),
(527,57,o),
(614,179,o),
(672,306,c),
(670,311,o),
(668,317,o),
(667,323,c)
);
},
{
attr = {
fillColor = (0,255);
};
closed = 1;
nodes = (
(202,254,o),
(177,175,o),
(176,114,c),
(174,60,o),
(194,19,o),
(196,30,c),
(200,64,o),
(215,176,o),
(226,287,c)
);
},
{
attr = {
fillColor = (0,255);
};
closed = 1;
nodes = (
(666,570,o),
(684,375,o),
(690,347,c),
(730,446,o),
(753,569,o),
(717,569,c)
);
}
);
width = 800;
}
);
unicode = 110;
},
{
glyphname = o;
lastChange = "2021-04-09 11:27:43 +0000";
layers = (
{
layerId = m01;
shapes = (
{
attr = {
fillColor = (0,255);
};
closed = 1;
nodes = (
(289,294,o),
(571,253,o),
(571,253,c),
(483,142,o),
(346,21,o),
(204,21,c),
(71,21,o),
(281,449,o),
(298,499,c),
(313,545,o),
(168,377,o),
(121,326,c),
(81,283,o),
(0,200,o),
(0,200,c),
(0,200,o),
(90,272,o),
(131,313,c),
(177,359,o),
(277,471,o),
(277,471,c),
(277,471,o),
(122,296,o),
(97,215,c),
(73,140,o),
(58,0,o),
(203,0,c),
(450,1,o),
(581,119,o),
(645,237,c),
(800,200,l),
(650,245,l),
(687,316,o),
(701,387,o),
(702,430,c),
(705,521,o),
(669,599,o),
(559,601,c),
(412,603,o),
(290,527,o),
(290,417,c)
);
},
{
attr = {
fillColor = (0,255);
};
closed = 1;
nodes = (
(579,264,o),
(313,312,o),
(317,418,c),
(322,520,o),
(392,566,o),
(550,567,c),
(631,567,o),
(670,483,o),
(666,422,c),
(664,396,o),
(631,333,o),
(579,264,c)
);
}
);
width = 800;
}
);
unicode = 111;
},
{
glyphname = p;
lastChange = "2021-04-11 12:31:03 +0000";
layers = (
{
layerId = m01;
shapes = (
{
attr = {
fillColor = (0,255);
};
closed = 1;
nodes = (
(173,601,o),
(80,310,o),
(85,248,c),
(36,217,o),
(0,200,o),
(0,200,c),
(0,200,o),
(35,215,o),
(86,244,c),
(93,179,o),
(139,118,o),
(275,104,c),
(213,-23,o),
(142,-200,o),
(241,-200,c),
(370,-200,o),
(700,201,o),
(700,201,c),
(700,201,o),
(335,-167,o),
(268,-165,c),
(226,-163,o),
(295,-10,o),
(350,101,c),
(582,106,o),
(696,400,o),
(540,398,c),
(420,397,o),
(318,190,o),
(293,141,c),
(169,151,o),
(147,220,o),
(156,286,c),
(355,404,o),
(646,600,o),
(411,600,c)
);
},
{
attr = {
fillColor = (0,255);
};
closed = 1;
nodes = (
(384,167,o),
(485,356,o),
(556,353,c),
(630,350,o),
(564,164,o),
(370,142,c)
);
},
{
attr = {
fillColor = (0,255);
};
closed = 1;
nodes = (
(165,335,o),
(238,556,o),
(411,558,c),
(555,559,o),
(327,402,o),
(158,293,c)
);
}
);
width = 700;
}
);
unicode = 112;
},
{
glyphname = q;
lastChange = "2021-04-11 12:34:19 +0000";
layers = (
{
layerId = m01;
shapes = (
{
attr = {
fillColor = (0,255);
};
closed = 1;
nodes = (
(0,200,o),
(101,-200,o),
(148,-200,c),
(217,-200,o),
(417,292,o),
(265,286,c),
(233,285,o),
(206,259,o),
(174,259,c),
(72,257,o),
(193,596,o),
(491,585,c),
(688,578,o),
(305,0,o),
(602,0,c),
(658,0,o),
(700,200,o),
(700,200,c),
(700,200,o),
(652,48,o),
(609,49,c),
(474,52,o),
(795,600,o),
(496,600,c),
(104,600,o),
(67,199,o),
(140,200,c),
(181,200,o),
(188,225,o),
(225,227,c),
(262,228,o),
(165,-194,o),
(144,-171,c),
(113,-136,o),
(0,200,o),
(0,200,c)
);
}
);
width = 700;
}
);
unicode = 113;
},
{
glyphname = r;
lastChange = "2021-04-23 02:13:05 +0000";
layers = (
{
layerId = m01;
shapes = (
{
attr = {
fillColor = (0,255);
};
closed = 1;
nodes = (
(166,519,o),
(39,28,o),
(137,24,c),
(181,23,o),
(347,661,o),
(439,559,c),
(483,510,o),
(276,-199,o),
(500,-200,c),
(595,-200,o),
(700,200,o),
(700,200,c),
(700,200,o),
(557,-163,o),
(508,-164,c),
(397,-164,o),
(663,601,o),
(440,600,c),
(283,600,o),
(159,94,o),
(138,61,c),
(105,10,o),
(275,594,o),
(191,600,c),
(117,600,o),
(0,200,o),
(0,200,c),
(0,200,o),
(160,592,o),
(163,556,cs)
);
}
);
width = 700;
}
);
unicode = 114;
},
{
glyphname = s;
lastChange = "2021-04-11 12:38:25 +0000";
layers = (
{
layerId = m01;
shapes = (
{
attr = {
fillColor = (0,255);
};
closed = 1;
nodes = (
(487,39,o),
(504,42,o),
(517,47,c),
(623,89,o),
(700,200,o),
(700,200,c),
(700,200,o),
(596,3,o),
(500,0,c),
(363,-5,o),
(146,22,o),
(146,22,c),
(146,22,o),
(99,1,o),
(88,1,c),
(-36,0,o),
(110,185,o),
(251,338,c),
(358,455,o),
(509,542,o),
(422,541,c),
(320,539,o),
(0,200,o),
(0,200,c),
(0,200,o),
(300,600,o),
(464,600,c),
(744,600,o),
(377,436,o),
(281,301,c),
(267,280,o),
(253,260,o),
(241,240,c),
(309,305,o),
(412,382,o),
(502,372,c),
(704,348,o),
(650,131,o),
(512,55,c),
(498,47,o),
(483,41,o),
(467,37,c)
);
},
{
attr = {
fillColor = (0,255);
};
closed = 1;
nodes = (
(151,75,o),
(406,22,o),
(516,89,c),
(610,146,o),
(609,306,o),
(497,339,c),
(410,365,o),
(273,245,o),
(199,171,c),
(167,113,o),
(151,75,o),
(151,75,c)
);
}
);
width = 700;
}
);
unicode = 115;
},
{
glyphname = t;
lastChange = "2021-04-12 12:17:21 +0000";
layers = (
{
layerId = m01;
shapes = (
{
attr = {
fillColor = (0,255);
};
closed = 1;
nodes = (
(244,646,o),
(267,700,o),
(301,700,c),
(351,700,o),
(351,664,o),
(325,609,c),
(365,605,o),
(400,596,o),
(400,584,c),
(400,581,o),
(353,582,o),
(310,580,c),
(295,554,o),
(275,525,o),
(253,495,c),
(232,357,o),
(197,101,o),
(223,72,c),
(259,34,o),
(400,200,o),
(400,200,c),
(400,200,o),
(251,1,o),
(199,1,c),
(100,2,o),
(134,226,o),
(174,393,c),
(88,291,o),
(0,200,o),
(0,200,c),
(0,200,o),
(99,323,o),
(185,441,c),
(201,501,o),
(215,548,o),
(220,565,c),
(165,550,o),
(96,527,o),
(94,530,c),
(91,540,o),
(175,586,o),
(231,603,c)
);
},
{
attr = {
fillColor = (0,255);
};
closed = 1;
nodes = (
(276,577,o),
(271,577,o),
(266,576,c),
(266,570,o),
(264,561,o),
(262,550,c),
(269,559,o),
(275,569,o),
(281,578,c)
);
},
{
attr = {
fillColor = (0,255);
};
closed = 1;
nodes = (
(329,657,o),
(336,681,o),
(304,662,c),
(298,658,o),
(287,634,o),
(278,611,c),
(286,611,o),
(293,611,o),
(301,611,c)
);
}
);
width = 400;
}
);
unicode = 116;
},
{
glyphname = u;
lastChange = "2021-04-13 20:02:51 +0000";
layers = (
{
layerId = m01;
shapes = (
{
attr = {
fillColor = (0,255);
};
closed = 1;
nodes = (
(339,600,o),
(218,82,o),
(306,30,c),
(230,34,o),
(157,126,o),
(156,203,c),
(156,296,o),
(343,600,o),
(236,600,c),
(214,600,o),
(0,200,o),
(0,200,c),
(0,200,o),
(225,575,o),
(224,560,c),
(221,535,o),
(89,335,o),
(88,199,c),
(88,104,o),
(203,0,o),
(300,0,c),
(317,1,o),
(335,1,o),
(352,5,c),
(366,2,o),
(382,0,o),
(399,0,c),
(485,0,o),
(800,200,o),
(800,200,c),
(800,200,o),
(544,60,o),
(434,33,c),
(685,160,o),
(824,600,o),
(638,600,c)
);
},
{
attr = {
fillColor = (0,255);
};
closed = 1;
nodes = (
(261,69,o),
(448,584,o),
(628,584,c),
(724,584,o),
(575,107,o),
(358,35,c)
);
}
);
width = 800;
}
);
unicode = 117;
},
{
glyphname = v;
lastChange = "2021-04-13 20:04:57 +0000";
layers = (
{
layerId = m01;
shapes = (
{
attr = {
fillColor = (0,255);
};
closed = 1;
nodes = (
(0,200,l),
(174,549,l),
(174,549,o),
(-12,0,o),
(203,0,c),
(235,0,o),
(283,120,o),
(376,232,c),
(407,269,o),
(442,306,o),
(476,342,c),
(468,254,o),
(488,165,o),
(601,161,c),
(630,160,o),
(700,200,o),
(700,200,c),
(700,200,o),
(633,174,o),
(602,176,c),
(505,180,o),
(534,334,o),
(562,430,c),
(656,528,o),
(722,600,o),
(657,600,c),
(572,600,o),
(493,449,o),
(481,374,c),
(440,333,o),
(398,289,o),
(359,245,c),
(273,150,o),
(233,27,o),
(206,27,c),
(100,27,o),
(215,600,o),
(200,600,c),
(160,600,o),
(39,289,o),
(0,200,c)
);
},
{
attr = {
fillColor = (0,255);
};
closed = 1;
nodes = (
(577,477,o),
(625,580,o),
(651,578,c),
(674,576,o),
(636,533,o),
(574,469,c)
);
}
);
width = 700;
}
);
unicode = 118;
},
{
glyphname = w;
lastChange = "2021-04-13 20:07:51 +0000";
layers = (
{
layerId = m01;
shapes = (
{
attr = {
fillColor = (0,255);
};
closed = 1;
nodes = (
(120,74,o),
(15,0,o),
(71,0,c),
(92,0,o),
(173,15,o),
(181,52,c),
(184,62,o),
(188,76,o),
(193,94,c),
(229,115,o),
(276,141,o),
(327,169,c),
(317,136,o),
(303,99,o),
(289,70,c),
(269,63,o),
(118,0,o),
(226,0,c),
(243,0,o),
(267,10,o),
(290,28,c),
(303,37,o),
(304,47,o),
(311,58,c),
(379,83,o),
(498,131,o),
(612,190,c),
(631,172,o),
(659,160,o),
(700,160,c),
(757,161,o),
(900,200,o),
(900,200,c),
(900,200,o),
(758,178,o),
(699,179,c),
(669,179,o),
(648,188,o),
(633,201,c),
(682,227,o),
(729,256,o),
(771,286,c),
(955,418,o),
(912,600,o),
(763,600,c),
(708,600,o),
(661,547,o),
(636,515,c),
(620,565,o),
(583,600,o),
(531,600,c),
(420,600,o),
(343,222,o),
(337,200,c),
(286,171,o),
(239,144,o),
(201,122,c),
(247,280,o),
(341,600,o),
(197,600,c),
(126,600,o),
(0,200,o),
(0,200,c),
(0,200,o),
(129,497,o),
(165,495,c),
(233,491,o),
(179,215,o),
(154,94,c)
);
},
{
attr = {
fillColor = (0,255);
};
closed = 1;
nodes = (
(265,29,o),
(244,19,o),
(233,18,c),
(213,16,o),
(260,39,o),
(275,44,c)
);
},
{
attr = {
fillColor = (0,255);
};
closed = 1;
nodes = (
(148,63,o),
(146,58,o),
(146,54,c),
(141,33,o),
(109,18,o),
(96,18,c),
(80,17,o),
(130,58,o),
(149,69,c)
);
},
{
attr = {
fillColor = (0,255);
};
closed = 1;
nodes = (
(572,277,o),
(576,241,o),
(595,211,c),
(500,157,o),
(396,112,o),
(326,85,c),
(344,119,o),
(357,158,o),
(366,189,c),
(422,219,o),
(480,250,o),
(533,275,c),
(547,282,o),
(560,290,o),
(571,299,c)
);
},
{
attr = {
fillColor = (0,255);
};
closed = 1;
nodes = (
(376,233,o),
(452,497,o),
(529,499,c),
(583,500,o),
(586,341,o),
(471,277,c),
(438,258,o),
(405,239,o),
(374,221,c)
);
},
{
attr = {
fillColor = (0,255);
};
closed = 1;
nodes = (
(594,261,o),
(598,311,o),
(601,328,c),
(630,365,o),
(643,399,o),
(644,442,c),
(664,456,o),
(700,504,o),
(756,500,c),
(796,497,o),
(809,363,o),
(705,283,c),
(678,262,o),
(647,242,o),
(615,223,c)
);
}
);
width = 900;
}
);
unicode = 119;
},
{
glyphname = x;
lastChange = "2021-04-13 20:09:46 +0000";
layers = (
{
layerId = m01;
shapes = (
{
attr = {
fillColor = (0,255);
};
closed = 1;
nodes = (
(0,199,o),
(116,515,o),
(195,465,c),
(266,421,o),
(401,2,o),
(536,0,c),
(617,-1,o),
(700,200,o),
(700,200,c),
(700,200,o),
(621,66,o),
(551,123,c),
(468,192,o),
(329,600,o),
(198,600,c),
(107,602,o),
(0,199,o),
(0,199,c)
);
},
{
attr = {
fillColor = (0,255);
};
closed = 1;
nodes = (
(202,0,o),
(674,600,o),
(651,600,c),
(520,600,o),
(64,0,o),
(84,0,c)
);
}
);
width = 700;
}
);
unicode = 120;
},
{
glyphname = y;
lastChange = "2021-04-13 20:14:19 +0000";
layers = (
{
layerId = m01;
shapes = (
{
attr = {
fillColor = (0,255);
};
closed = 1;
nodes = (
(40,-200,l),
(116,-202,o),
(260,-53,o),
(381,108,c),
(399,117,o),
(419,126,o),
(440,135,c),
(516,169,o),
(600,200,o),
(600,200,c),
(600,200,o),
(483,167,o),
(400,133,c),
(532,313,o),
(629,500,o),
(565,500,c),
(485,499,o),
(291,244,o),
(228,241,c),
(177,239,o),
(451,601,o),
(304,600,c),
(261,600,o),
(0,200,o),
(0,200,c),
(0,200,o),
(265,579,o),
(298,580,c),
(332,581,o),
(58,201,o),
(201,200,c),
(274,200,o),
(438,432,o),
(512,431,c),
(534,430,o),
(386,221,o),
(256,52,c),
(204,16,o),
(-74,-200,o),
(39,-200,c)
);
},
{
attr = {
fillColor = (0,255);
};
closed = 1;
nodes = (
(146,-90,o),
(85,-160,o),
(74,-161,c),
(17,-161,o),
(178,-28,o),
(218,3,c)
);
}
);
width = 600;
}
);
unicode = 121;
},
{
glyphname = z;
lastChange = "2021-04-13 20:15:58 +0000";
layers = (
{
layerId = m01;
shapes = (
{
attr = {
fillColor = (0,255);
};
closed = 1;
nodes = (
(202,401,o),
(-151,0,o),
(98,0,c),
(156,0,o),
(286,132,o),
(424,268,c),
(400,181,o),
(313,0,o),
(399,0,c),
(500,0,o),
(800,200,o),
(800,200,c),
(800,200,o),
(553,87,o),
(498,86,c),
(463,85,o),
(531,281,o),
(531,366,c),
(685,494,o),
(858,600,o),
(650,600,c),
(202,600,o),
(0,200,o),
(0,200,c),
(0,200,o),
(188,552,o),
(614,557,c),
(626,557,o),
(568,490,o),
(489,405,c)
);
},
{
attr = {
fillColor = (0,255);
};
closed = 1;
nodes = (
(297,203,o),
(190,74,o),
(148,70,c),
(47,59,o),
(316,302,o),
(400,311,c)
);
}
);
width = 800;
}
);
unicode = 122;
},
{
glyphname = zero;
lastChange = "2021-05-09 15:08:05 +0000";
layers = (
{
layerId = m01;
shapes = (
{
attr = {
fillColor = (0,255);
};
closed = 1;
nodes = (
(98,104,o),
(210,0,o),
(299,0,c),
(416,0,o),
(700,200,o),
(700,200,c),
(700,200,o),
(387,27,o),
(283,43,c),
(204,56,o),
(101,226,o),
(101,226,c),
(101,226,o),
(182,255,o),
(208,272,c),
(217,278,o),
(227,285,o),
(239,291,c),
(240,292,l),
(201,203,o),
(183,102,o),
(250,65,c),
(302,37,o),
(454,75,o),
(518,142,c),
(741,373,o),
(600,800,o),
(357,800,c),
(165,800,o),
(36,495,o),
(36,298,c),
(37,273,o),
(42,247,o),
(51,221,c),
(22,208,o),
(0,200,o),
(0,200,c),
(0,200,o),
(23,203,o),
(55,212,c)
);
},
{
attr = {
fillColor = (0,255);
};
closed = 1;
nodes = (
(91,264,o),
(88,286,o),
(90,306,c),
(97,409,o),
(168,591,o),
(236,633,c),
(441,757,o),
(641,485,o),
(487,220,c),
(436,133,o),
(312,98,o),
(273,116,c),
(238,132,o),
(289,321,o),
(289,321,c),
(289,321,o),
(399,401,o),
(368,450,c),
(354,472,o),
(298,408,o),
(256,325,c),
(239,315,o),
(221,305,o),
(203,295,c),
(177,281,o),
(135,261,o),
(97,242,c),
(97,242,o),
(97,242,o),
(97,242,c)
);
},
{
attr = {
fillColor = (0,255);
};
closed = 1;
nodes = (
(300,353,l),
(300,353,l),
(300,353,l),
(320,401,o),
(340,432,o),
(349,420,c),
(362,404,o),
(339,380,o),
(300,353,c),
(300,353,l)
);
}
);
width = 700;
}
);
unicode = 48;
},
{
glyphname = one;
lastChange = "2021-05-08 20:01:02 +0000";
layers = (
{
layerId = m01;
shapes = (
{
attr = {
fillColor = (0,255);
};
closed = 1;
nodes = (
(133,800,o),
(137,329,o),
(135,280,c),
(65,233,o),
(0,200,o),
(0,200,c),
(0,200,o),
(64,224,o),
(135,261,c),
(133,198,o),
(130,133,o),
(123,94,c),
(84,93,o),
(1,74,o),
(0,35,c),
(0,20,o),
(10,0,o),
(31,0,c),
(61,0,o),
(165,31,o),
(183,69,c),
(184,72,o),
(185,75,o),
(187,78,c),
(199,78,o),
(212,78,o),
(225,76,c),
(288,71,o),
(354,37,o),
(399,46,c),
(508,68,o),
(700,200,o),
(700,200,c),
(700,200,o),
(508,78,o),
(399,60,c),
(356,53,o),
(289,83,o),
(227,90,c),
(215,91,o),
(203,92,o),
(191,93,c),
(206,144,o),
(217,236,o),
(224,309,c),
(287,344,o),
(349,381,o),
(386,412,c),
(478,487,o),
(606,558,o),
(603,667,c),
(600,757,o),
(496,800,o),
(400,800,c)
);
},
{
attr = {
fillColor = (0,255);
};
closed = 1;
nodes = (
(120,75,o),
(119,75,o),
(119,74,c),
(111,46,o),
(34,5,o),
(25,29,c),
(18,49,o),
(81,73,o),
(120,76,c)
);
},
{
attr = {
fillColor = (0,255);
};
closed = 1;
nodes = (
(229,365,o),
(227,743,o),
(400,751,c),
(454,754,o),
(517,705,o),
(514,656,c),
(511,607,o),
(443,510,o),
(382,455,c),
(350,427,o),
(290,384,o),
(227,341,c)
);
}
);
width = 700;
}
);
unicode = 49;
},
{
glyphname = two;
lastChange = "2021-05-08 20:03:48 +0000";
layers = (
{
layerId = m01;
shapes = (
{
attr = {
fillColor = (0,255);
};
closed = 1;
nodes = (
(271,325,o),
(386,436,o),
(386,436,c),
(386,436,o),
(610,611,o),
(599,686,c),
(586,775,o),
(496,800,o),
(400,800,c),
(133,800,o),
(137,329,o),
(135,280,c),
(65,233,o),
(1,200,o),
(1,200,c),
(1,200,o),
(64,224,o),
(135,261,c),
(133,198,o),
(130,133,o),
(123,94,c),
(84,93,o),
(1,74,o),
(0,35,c),
(0,20,o),
(10,0,o),
(31,0,c),
(61,0,o),
(165,31,o),
(183,69,c),
(184,72,o),
(185,75,o),
(187,78,c),
(199,78,o),
(212,78,o),
(225,76,c),
(288,71,o),
(354,37,o),
(399,46,c),
(508,68,o),
(700,200,o),
(700,200,c),
(700,200,o),
(508,78,o),
(399,60,c),
(356,53,o),
(289,83,o),
(227,90,c),
(215,91,o),
(203,92,o),
(191,93,c),
(206,144,o),
(217,236,o),
(224,309,c)
);
},
{
attr = {
fillColor = (0,255);
};
closed = 1;
nodes = (
(120,75,o),
(119,75,o),
(119,74,c),
(111,46,o),
(34,5,o),
(25,29,c),
(18,49,o),
(81,73,o),
(120,76,c)
);
},
{
attr = {
fillColor = (0,255);
};
closed = 1;
nodes = (
(454,553,o),
(453,565,o),
(445,574,c),
(432,589,o),
(360,553,o),
(340,536,c),
(259,468,o),
(271,417,o),
(273,404,c),
(273,395,o),
(288,384,o),
(288,384,c),
(268,370,o),
(244,352,o),
(227,341,c),
(229,365,o),
(227,743,o),
(400,751,c),
(454,754,o),
(514,705,o),
(514,656,c),
(514,595,o),
(452,540,o),
(452,540,c)
);
},
{
attr = {
fillColor = (0,255);
};
closed = 1;
nodes = (
(306,402,o),
(299,408,o),
(301,420,c),
(306,441,o),
(329,472,o),
(347,490,c),
(368,510,o),
(489,592,o),
(386,461,c),
(371,443,o),
(311,399,o),
(311,399,c)
);
}
);
width = 700;
}
);
unicode = 50;
},
{
glyphname = three;
lastChange = "2021-05-08 20:05:47 +0000";
layers = (
{
layerId = m01;
shapes = (
{
attr = {
fillColor = (0,255);
};
closed = 1;
nodes = (
(165,800,o),
(136,274,o),
(132,199,c),
(59,194,o),
(0,200,o),
(0,200,c),
(0,200,o),
(58,186,o),
(132,185,c),
(130,150,o),
(127,117,o),
(123,94,c),
(84,93,o),
(1,74,o),
(0,35,c),
(0,20,o),
(10,0,o),
(31,0,c),
(61,0,o),
(165,31,o),
(183,69,c),
(184,72,o),
(185,75,o),
(187,78,c),
(199,78,o),
(212,78,o),
(225,76,c),
(288,71,o),
(354,37,o),
(399,46,c),
(508,68,o),
(700,200,o),
(700,200,c),
(700,200,o),
(508,78,o),
(399,60,c),
(356,53,o),
(289,83,o),
(227,90,c),
(215,91,o),
(203,92,o),
(191,93,c),
(199,117,o),
(205,151,o),
(210,187,c),
(246,189,o),
(355,202,o),
(401,232,c),
(461,271,o),
(491,315,o),
(491,315,c),
(555,373,o),
(594,424,o),
(594,499,c),
(594,530,o),
(574,550,o),
(556,563,c),
(584,603,o),
(602,641,o),
(603,667,c),
(606,732,o),
(491,800,o),
(400,800,c)
);
},
{
attr = {
fillColor = (0,255);
};
closed = 1;
nodes = (
(120,75,o),
(120,77,o),
(120,76,c),
(112,48,o),
(34,5,o),
(25,29,c),
(18,49,o),
(81,73,o),
(120,76,c)
);
},
{
attr = {
fillColor = (0,255);
};
closed = 1;
nodes = (
(448,588,o),
(312,535,o),
(280,479,c),
(240,412,o),
(237,343,o),
(386,412,c),
(434,434,o),
(483,475,o),
(521,519,c),
(531,512,o),
(538,502,o),
(541,488,c),
(555,431,o),
(486,345,o),
(488,348,c),
(487,360,o),
(486,371,o),
(476,379,c),
(461,392,o),
(377,367,o),
(345,347,c),
(313,327,o),
(253,264,o),
(274,225,c),
(276,221,o),
(278,218,o),
(281,215,c),
(259,211,o),
(236,209,o),
(213,206,c),
(223,282,o),
(227,743,o),
(400,751,c),
(454,754,o),
(527,709,o),
(526,657,c),
(525,637,o),
(516,610,o),
(501,582,c)
);
},
{
attr = {
fillColor = (0,255);
};
closed = 1;
nodes = (
(286,232,o),
(327,282,o),
(351,300,c),
(375,317,o),
(433,348,o),
(442,337,c),
(459,316,o),
(423,269,o),
(390,254,c),
(389,254,o),
(337,228,o),
(315,224,c)
);
},
{
attr = {
fillColor = (0,255);
};
closed = 1;
nodes = (
(425,467,o),
(318,390,o),
(301,432,c),
(277,490,o),
(423,545,o),
(472,533,c)
);
}
);
width = 700;
}
);
unicode = 51;
},
{
glyphname = four;
lastChange = "2021-05-09 11:14:05 +0000";
layers = (
{
layerId = m01;
shapes = (
{
attr = {
fillColor = (0,255);
};
closed = 1;
nodes = (
(124,455,o),
(467,187,o),
(547,161,c),
(534,119,o),
(491,67,o),
(451,67,c),
(359,67,o),
(0,200,o),
(0,200,c),
(0,200,o),
(233,0,o),
(449,-1,c),
(533,-1,o),
(651,66,o),
(678,145,c),
(738,155,o),
(800,200,o),
(800,200,c),
(800,200,o),
(739,176,o),
(683,171,c),
(683,180,o),
(683,189,o),
(680,198,c),
(647,331,o),
(455,800,o),
(249,800,c),
(140,800,o),
(53,705,o),
(77,621,c)
);
},
{
attr = {
fillColor = (0,255);
};
closed = 1;
nodes = (
(491,217,o),
(70,603,o),
(164,684,c),
(364,865,o),
(549,295,o),
(550,192,c),
(550,192,o),
(550,192,o),
(550,192,c)
);
}
);
width = 800;
}
);
unicode = 52;
},
{
glyphname = five;
lastChange = "2021-05-09 11:13:23 +0000";
layers = (
{
layerId = m01;
shapes = (
{
attr = {
fillColor = (0,255);
};
closed = 1;
nodes = (
(160,800,o),
(155,377,o),
(234,345,c),
(137,255,o),
(0,200,o),
(0,200,c),
(0,200,o),
(220,221,o),
(304,306,c),
(313,315,o),
(322,326,o),
(333,339,c),
(366,350,o),
(400,374,o),
(429,402,c),
(412,263,o),
(393,0,o),
(500,0,c),
(547,0,o),
(600,200,o),
(600,200,c),
(600,200,o),
(539,41,o),
(500,50,c),
(464,59,o),
(472,382,o),
(474,454,c),
(504,498,o),
(517,541,o),
(495,555,c),
(459,577,o),
(436,453,o),
(434,435,c),
(408,409,o),
(380,384,o),
(355,368,c),
(456,509,o),
(587,800,o),
(395,800,c)
);
},
{
attr = {
fillColor = (0,255);
};
closed = 1;
nodes = (
(183,389,o),
(173,648,o),
(306,730,c),
(359,763,o),
(394,729,o),
(405,706,c),
(425,663,o),
(340,451,o),
(251,361,c),
(251,361,o),
(251,361,o),
(251,361,c)
);
},
{
attr = {
fillColor = (0,255);
};
closed = 1;
nodes = (
(475,505,o),
(484,546,o),
(495,532,c),
(500,525,o),
(491,506,o),
(474,483,c)
);
}
);
width = 600;
}
);
unicode = 53;
},
{
glyphname = six;
lastChange = "2021-05-09 11:18:33 +0000";
layers = (
{
layerId = m01;
shapes = (
{
attr = {
fillColor = (0,255);
};
closed = 1;
nodes = (
(111,239,l),
(49,105,o),
(29,0,o),
(98,0,c),
(503,0,o),
(800,200,o),
(800,200,c),
(800,200,o),
(258,52,o),
(184,109,c),
(148,139,o),
(194,211,o),
(226,287,c),
(445,384,o),
(745,538,o),
(744,640,c),
(744,724,o),
(644,800,o),
(554,800,c),
(459,800,o),
(228,488,o),
(117,254,c),
(48,218,o),
(0,200,o),
(0,200,c)
);
},
{
attr = {
fillColor = (0,255);
};
closed = 1;
nodes = (
(234,313,l),
(234,313,l),
(293,461,o),
(386,615,o),
(449,655,c),
(519,699,o),
(602,696,o),
(629,627,c),
(654,558,o),
(234,313,o),
(234,313,c),
(234,313,l)
);
}
);
width = 800;
}
);
unicode = 54;
},
{
glyphname = seven;
lastChange = "2021-05-09 14:23:05 +0000";
layers = (
{
layerId = m01;
shapes = (
{
attr = {
fillColor = (0,255);
};
closed = 1;
nodes = (
(197,801,o),
(177,742,o),
(167,698,c),
(150,622,o),
(140,489,o),
(154,338,c),
(93,269,o),
(0,200,o),
(0,200,c),
(0,200,o),
(92,240,o),
(159,294,c),
(181,139,o),
(244,0,o),
(400,0,c),
(604,0,o),
(700,200,o),
(700,200,c),
(700,200,o),
(617,69,o),
(532,49,c),
(533,49,o),
(533,49,o),
(533,49,c),
(532,49,l),
(655,157,o),
(660,398,o),
(416,397,c),
(314,397,o),
(254,274,o),
(257,165,c),
(257,164,l),
(257,164,o),
(257,164,o),
(257,164,c),
(257,165,l),
(231,218,o),
(217,280,o),
(209,343,c),
(219,355,o),
(227,368,o),
(233,381,c),
(274,480,o),
(303,798,o),
(257,800,c)
);
},
{
attr = {
fillColor = (0,255);
};
closed = 1;
nodes = (
(647,317,o),
(499,9,o),
(404,42,c),
(307,75,o),
(283,160,o),
(296,234,c),
(310,307,o),
(362,370,o),
(418,360,c)
);
},
{
attr = {
fillColor = (0,255);
};
closed = 1;
nodes = (
(195,541,o),
(208,640,o),
(216,698,c),
(220,723,o),
(243,788,o),
(253,762,c),
(269,723,o),
(241,517,o),
(202,415,c)
);
}
);
width = 700;
}
);
unicode = 55;
},
{
glyphname = eight;
lastChange = "2021-05-09 14:22:42 +0000";
layers = (
{
layerId = m01;
shapes = (
{
attr = {
fillColor = (0,255);
};
closed = 1;
nodes = (
(197,801,o),
(173,739,o),
(167,698,c),
(162,664,o),
(159,640,o),
(155,593,c),
(145,596,o),
(135,598,o),
(125,599,c),
(63,606,o),
(6,585,o),
(29,514,c),
(43,470,o),
(97,448,o),
(149,447,c),
(149,412,o),
(150,375,o),
(154,338,c),
(93,269,o),
(0,200,o),
(0,200,c),
(0,200,o),
(92,240,o),
(159,294,c),
(181,139,o),
(244,0,o),
(400,0,c),
(604,0,o),
(700,200,o),
(700,200,c),
(700,200,o),
(617,69,o),
(532,49,c),
(533,49,o),
(533,49,o),
(533,49,c),
(532,49,l),
(655,157,o),
(660,398,o),
(416,397,c),
(314,397,o),
(254,274,o),
(257,165,c),
(257,164,l),
(257,164,o),
(257,164,o),
(257,164,c),
(257,165,l),
(231,218,o),
(217,280,o),
(209,343,c),
(219,355,o),
(227,368,o),
(233,381,c),
(274,480,o),
(303,798,o),
(257,800,c)
);
},
{
attr = {
fillColor = (0,255);
};
closed = 1;
nodes = (
(647,317,o),
(499,9,o),
(404,42,c),
(307,75,o),
(283,160,o),
(296,234,c),
(310,307,o),
(362,370,o),
(418,360,c)
);
},
{
attr = {
fillColor = (0,255);
};
closed = 1;
nodes = (
(212,442,o),
(207,428,o),
(202,415,c),
(202,428,o),
(201,440,o),
(201,453,c),
(206,454,o),
(211,456,o),
(216,458,c)
);
},
{
attr = {
fillColor = (0,255);
};
closed = 1;
nodes = (
(151,529,o),
(149,504,o),
(149,478,c),
(104,482,o),
(55,498,o),
(46,521,c),
(31,563,o),
(73,569,o),
(121,560,c),
(131,559,o),
(142,556,o),
(152,553,c)
);
},
{
attr = {
fillColor = (0,255);
};
closed = 1;
nodes = (
(216,527,o),
(227,517,o),
(229,510,c),
(230,509,o),
(229,511,o),
(229,510,c),
(228,504,o),
(226,497,o),
(225,491,c),
(220,486,o),
(211,482,o),
(200,480,c),
(200,499,o),
(201,517,o),
(201,534,c)
);
},
{
attr = {
fillColor = (0,255);
};
closed = 1;
nodes = (
(229,560,o),
(217,568,o),
(203,575,c),
(207,632,o),
(211,667,o),
(219,698,c),
(225,722,o),
(243,788,o),
(253,762,c),
(263,737,o),
(255,642,o),
(238,551,c)
);
}
);
width = 700;
}
);
unicode = 56;
},
{
glyphname = nine;
lastChange = "2021-05-09 14:26:42 +0000";
layers = (
{
layerId = m01;
shapes = (
{
attr = {
fillColor = (0,255);
};
closed = 1;
nodes = (
(197,801,o),
(175,737,o),
(168,701,c),
(166,689,o),
(164,678,o),
(162,665,c),
(154,667,o),
(146,668,o),
(138,669,c),
(75,676,o),
(19,655,o),
(41,585,c),
(55,543,o),
(102,522,o),
(150,518,c),
(150,510,o),
(150,502,o),
(149,494,c),
(135,498,o),
(120,501,o),
(106,503,c),
(43,510,o),
(-13,489,o),
(9,419,c),
(26,367,o),
(95,347,o),
(153,352,c),
(153,348,o),
(153,343,o),
(154,338,c),
(93,269,o),
(0,200,o),
(0,200,c),
(0,200,o),
(92,240,o),
(159,294,c),
(181,139,o),
(244,0,o),
(400,0,c),
(604,0,o),
(700,100,o),
(700,100,c),
(700,100,o),
(617,69,o),
(532,49,c),
(533,49,o),
(533,49,o),
(533,49,c),
(532,49,l),
(655,157,o),
(660,398,o),
(416,397,c),
(314,397,o),
(254,274,o),
(257,165,c),
(257,164,l),
(257,164,o),
(257,164,o),
(257,164,c),
(257,165,l),
(231,218,o),
(217,280,o),
(209,343,c),
(219,355,o),
(227,368,o),
(233,381,c),
(245,410,o),
(256,457,o),
(264,510,c),
(285,638,o),
(289,799,o),
(257,800,c)
);
},
{
attr = {
fillColor = (0,255);
};
closed = 1;
nodes = (
(647,317,o),
(499,9,o),
(404,42,c),
(307,75,o),
(283,160,o),
(296,234,c),
(310,307,o),
(362,370,o),
(418,360,c)
);
},
{
attr = {
fillColor = (0,255);
};
closed = 1;
nodes = (
(149,429,o),
(149,406,o),
(151,382,c),
(101,382,o),
(37,399,o),
(27,425,c),
(11,468,o),
(53,473,o),
(101,465,c),
(117,462,o),
(134,457,o),
(149,452,c)
);
},
{
attr = {
fillColor = (0,255);
};
closed = 1;
nodes = (
(202,422,o),
(202,419,o),
(202,415,c),
(203,418,o),
(204,420,o),
(205,423,c),
(204,424,o),
(203,425,o),
(202,426,c)
);
},
{
attr = {
fillColor = (0,255);
};
closed = 1;
nodes = (
(228,505,o),
(222,480,o),
(216,457,c),
(211,462,o),
(206,466,o),
(201,470,c),
(200,487,o),
(201,504,o),
(201,520,c),
(213,522,o),
(224,526,o),
(234,530,c)
);
},
{
attr = {
fillColor = (0,255);
};
closed = 1;
nodes = (
(224,599,o),
(239,585,o),
(243,577,c),
(243,575,o),
(242,579,o),
(243,577,c),
(242,573,o),
(241,569,o),
(240,565,c),
(235,556,o),
(220,551,o),
(202,549,c),
(203,570,o),
(204,590,o),
(206,608,c)
);
},
{
attr = {
fillColor = (0,255);
};
closed = 1;
nodes = (
(156,603,o),
(154,577,o),
(152,549,c),
(109,555,o),
(66,570,o),
(59,591,c),
(43,633,o),
(85,639,o),
(133,631,c),
(141,629,o),
(150,627,o),
(158,625,c)
);
},
{
attr = {
fillColor = (0,255);
};
closed = 1;
nodes = (
(239,632,o),
(225,641,o),
(210,648,c),
(212,670,o),
(214,682,o),
(216,698,c),
(219,721,o),
(243,788,o),
(253,762,c),
(261,744,o),
(258,687,o),
(249,622,c)
);
}
);
width = 700;
}
);
unicode = 57;
},
{
glyphname = period;
lastChange = "2021-05-15 08:00:53 +0000";
layers = (
{
layerId = m01;
shapes = (
{
attr = {
fillColor = (0,255);
};
closed = 1;
nodes = (
(189,119,o),
(169,115,o),
(154,92,c),
(128,50,o),
(168,-1,o),
(201,-1,c),
(261,0,o),
(300,39,o),
(300,85,c),
(301,173,o),
(132,231,o),
(77,231,c),
(48,232,o),
(0,200,o),
(0,200,c),
(0,200,o),
(50,221,o),
(76,221,c),
(131,221,o),
(180,172,o),
(208,120,c)
);
}
);
width = 400;
}
);
unicode = 46;
},
{
glyphname = comma;
lastChange = "2021-05-15 08:01:35 +0000";
layers = (
{
layerId = m01;
shapes = (
{
attr = {
fillColor = (0,255);
};
closed = 1;
nodes = (
(0,200,o),
(53,214,o),
(97,196,c),
(219,145,o),
(169,0,o),
(252,0,c),
(273,0,o),
(300,17,o),
(300,46,c),
(300,90,o),
(157,191,o),
(111,207,c),
(56,226,o),
(0,200,o),
(0,200,c)
);
}
);
width = 400;
}
);
unicode = 44;
},
{
glyphname = exclam;
lastChange = "2021-05-15 07:30:47 +0000";
layers = (
{
layerId = m01;
shapes = (
{
attr = {
fillColor = (0,255);
};
closed = 1;
nodes = (
(106,336,o),
(0,200,o),
(0,200,c),
(0,200,o),
(106,285,o),
(182,370,c),
(193,340,o),
(203,310,o),
(204,281,c),
(205,139,o),
(157,142,o),
(140,100,c),
(123,59,o),
(140,1,o),
(184,1,c),
(235,0,o),
(400,200,o),
(400,200,c),
(400,200,o),
(269,79,o),
(240,112,c),
(212,145,o),
(251,235,o),
(232,298,c),
(221,333,o),
(210,363,o),
(202,393,c),
(235,433,o),
(259,472,o),
(262,503,c),
(270,598,o),
(274,803,o),
(205,800,c),
(139,797,o),
(148,584,o),
(149,495,c),
(149,475,o),
(153,455,o),
(159,436,c)
);
}
);
width = 400;
}
);
unicode = 33;
},
{
glyphname = question;
lastChange = "2021-05-15 07:29:00 +0000";
layers = (
{
layerId = m01;
shapes = (
{
attr = {
fillColor = (0,255);
};
closed = 1;
nodes = (
(0,200,o),
(152,421,o),
(176,517,c),
(193,580,o),
(264,723,o),
(352,723,c),
(438,723,o),
(448,642,o),
(448,584,c),
(448,525,o),
(302,401,o),
(301,347,c),
(300,283,o),
(399,333,o),
(344,205,c),
(331,175,o),
(296,134,o),
(295,98,c),
(294,65,o),
(340,0,o),
(378,0,c),
(449,-1,o),
(700,200,o),
(700,200,c),
(700,200,o),
(466,55,o),
(420,84,c),
(379,111,o),
(360,151,o),
(370,200,c),
(377,236,o),
(364,297,o),
(398,326,c),
(491,404,o),
(577,482,o),
(579,598,c),
(581,693,o),
(498,800,o),
(352,800,c),
(169,800,o),
(153,623,o),
(130,510,c),
(106,396,o),
(0,200,o),
(0,200,c)
);
}
);
width = 700;
}
);
unicode = 63;
},
{
glyphname = hyphen;
lastChange = "2021-05-15 06:03:21 +0000";
layers = (
{
layerId = m01;
shapes = (
{
attr = {
fillColor = (0,255);
};
closed = 1;
nodes = (
(0,200,o),
(74,277,o),
(144,294,c),
(225,314,o),
(356,319,o),
(437,295,c),
(512,273,o),
(507,216,o),
(566,195,c),
(622,174,o),
(700,200,o),
(700,200,c),
(700,200,o),
(610,173,o),
(565,214,c),
(511,263,o),
(532,346,o),
(457,376,c),
(377,409,o),
(318,403,o),
(240,397,c),
(202,394,o),
(147,352,o),
(108,314,c),
(58,266,o),
(0,200,o),
(0,200,c)
);
}
